<svg viewBox="0 0 28 28" fill="none" xmlns="http://www.w3.org/2000/svg">
<path d="M0.584338 5.20384C4.42723 8.45835 11.1703 14.184 13.1522 15.9693C13.4182 16.2103 13.7036 16.3328 13.9998 16.3328C14.2955 16.3328 14.5803 16.2114 14.8458 15.9716C16.8294 14.1846 23.5724 8.45835 27.4154 5.20384C27.6546 5.00161 27.6911 4.64614 27.4974 4.3989C27.0496 3.82758 26.382 3.5 25.6665 3.5H2.33319C1.61771 3.5 0.950033 3.82758 0.502307 4.39895C0.308604 4.64614 0.34508 5.00161 0.584338 5.20384Z" fill="white"/>
<path d="M27.6616 6.9675C27.4549 6.87125 27.2116 6.90483 27.0396 7.05183C22.7779 10.6646 17.3388 15.2954 15.6275 16.8374C14.667 17.7045 13.334 17.7045 12.3713 16.8363C10.5472 15.1928 4.43931 10.0004 0.960422 7.05177C0.787227 6.90477 0.54343 6.87234 0.338352 6.96745C0.13218 7.0632 0 7.26943 0 7.49671V22.1666C0 23.4535 1.04645 24.5 2.33335 24.5H25.6667C26.9536 24.5 28 23.4535 28 22.1666V7.49671C28 7.26943 27.8678 7.06266 27.6616 6.9675Z" fill="white"/>
</svg>
