<svg viewBox="0 0 308 484" fill="none" xmlns="http://www.w3.org/2000/svg">
<path d="M8.01347 84.9931L296.013 5.88506C300.788 4.5737 305.5 8.16623 305.5 13.1172V474C305.5 478.142 302.142 481.5 298 481.5H10C5.85787 481.5 2.5 478.142 2.5 474V92.2252C2.5 88.8481 4.75702 85.8876 8.01347 84.9931Z" fill="#539BA9" stroke="white" stroke-width="5"/>
<path d="M33.8269 354.4V367H32.5129V361.186H24.6289V367H23.2969V354.4H24.6289V360.016H32.5129V354.4H33.8269ZM41.0321 357.46C42.2681 357.46 43.2161 357.772 43.8761 358.396C44.5361 359.008 44.8661 359.92 44.8661 361.132V367H43.6421V365.524C43.3541 366.016 42.9281 366.4 42.3641 366.676C41.8121 366.952 41.1521 367.09 40.3841 367.09C39.3281 367.09 38.4881 366.838 37.8641 366.334C37.2401 365.83 36.9281 365.164 36.9281 364.336C36.9281 363.532 37.2161 362.884 37.7921 362.392C38.3801 361.9 39.3101 361.654 40.5821 361.654H43.5881V361.078C43.5881 360.262 43.3601 359.644 42.9041 359.224C42.4481 358.792 41.7821 358.576 40.9061 358.576C40.3061 358.576 39.7301 358.678 39.1781 358.882C38.6261 359.074 38.1521 359.344 37.7561 359.692L37.1801 358.738C37.6601 358.33 38.2361 358.018 38.9081 357.802C39.5801 357.574 40.2881 357.46 41.0321 357.46ZM40.5821 366.082C41.3021 366.082 41.9201 365.92 42.4361 365.596C42.9521 365.26 43.3361 364.78 43.5881 364.156V362.608H40.6181C38.9981 362.608 38.1881 363.172 38.1881 364.3C38.1881 364.852 38.3981 365.29 38.8181 365.614C39.2381 365.926 39.8261 366.082 40.5821 366.082ZM59.0091 362.104C60.2931 362.404 60.9351 363.178 60.9351 364.426C60.9351 365.254 60.6291 365.89 60.0171 366.334C59.4051 366.778 58.4931 367 57.2811 367H52.9791V357.532H57.1551C58.2351 357.532 59.0811 357.742 59.6931 358.162C60.3051 358.582 60.6111 359.182 60.6111 359.962C60.6111 360.478 60.4671 360.922 60.1791 361.294C59.9031 361.654 59.5131 361.924 59.0091 362.104ZM54.2211 361.744H57.0651C57.7971 361.744 58.3551 361.606 58.7391 361.33C59.1351 361.054 59.3331 360.652 59.3331 360.124C59.3331 359.596 59.1351 359.2 58.7391 358.936C58.3551 358.672 57.7971 358.54 57.0651 358.54H54.2211V361.744ZM57.2271 365.992C58.0431 365.992 58.6551 365.86 59.0631 365.596C59.4711 365.332 59.6751 364.918 59.6751 364.354C59.6751 363.79 59.4891 363.376 59.1171 363.112C58.7451 362.836 58.1571 362.698 57.3531 362.698H54.2211V365.992H57.2271ZM67.8903 367.09C66.9543 367.09 66.1143 366.886 65.3703 366.478C64.6383 366.07 64.0623 365.5 63.6423 364.768C63.2223 364.024 63.0123 363.19 63.0123 362.266C63.0123 361.342 63.2223 360.514 63.6423 359.782C64.0623 359.05 64.6383 358.48 65.3703 358.072C66.1143 357.664 66.9543 357.46 67.8903 357.46C68.7063 357.46 69.4323 357.622 70.0683 357.946C70.7163 358.258 71.2263 358.72 71.5983 359.332L70.6443 359.98C70.3323 359.512 69.9363 359.164 69.4563 358.936C68.9763 358.696 68.4543 358.576 67.8903 358.576C67.2063 358.576 66.5883 358.732 66.0363 359.044C65.4963 359.344 65.0703 359.776 64.7583 360.34C64.4583 360.904 64.3083 361.546 64.3083 362.266C64.3083 362.998 64.4583 363.646 64.7583 364.21C65.0703 364.762 65.4963 365.194 66.0363 365.506C66.5883 365.806 67.2063 365.956 67.8903 365.956C68.4543 365.956 68.9763 365.842 69.4563 365.614C69.9363 365.386 70.3323 365.038 70.6443 364.57L71.5983 365.218C71.2263 365.83 70.7163 366.298 70.0683 366.622C69.4203 366.934 68.6943 367.09 67.8903 367.09ZM82.1947 362.662H74.2747C74.3467 363.646 74.7247 364.444 75.4087 365.056C76.0927 365.656 76.9567 365.956 78.0007 365.956C78.5887 365.956 79.1287 365.854 79.6207 365.65C80.1127 365.434 80.5387 365.122 80.8987 364.714L81.6187 365.542C81.1987 366.046 80.6707 366.43 80.0347 366.694C79.4107 366.958 78.7207 367.09 77.9647 367.09C76.9927 367.09 76.1287 366.886 75.3727 366.478C74.6287 366.058 74.0467 365.482 73.6267 364.75C73.2067 364.018 72.9967 363.19 72.9967 362.266C72.9967 361.342 73.1947 360.514 73.5907 359.782C73.9987 359.05 74.5507 358.48 75.2467 358.072C75.9547 357.664 76.7467 357.46 77.6227 357.46C78.4987 357.46 79.2847 357.664 79.9807 358.072C80.6767 358.48 81.2227 359.05 81.6187 359.782C82.0147 360.502 82.2127 361.33 82.2127 362.266L82.1947 362.662ZM77.6227 358.558C76.7107 358.558 75.9427 358.852 75.3187 359.44C74.7067 360.016 74.3587 360.772 74.2747 361.708H80.9887C80.9047 360.772 80.5507 360.016 79.9267 359.44C79.3147 358.852 78.5467 358.558 77.6227 358.558ZM95.7826 362.104C97.0666 362.404 97.7086 363.178 97.7086 364.426C97.7086 365.254 97.4026 365.89 96.7906 366.334C96.1786 366.778 95.2666 367 94.0546 367H89.7526V357.532H93.9286C95.0086 357.532 95.8546 357.742 96.4666 358.162C97.0786 358.582 97.3846 359.182 97.3846 359.962C97.3846 360.478 97.2406 360.922 96.9526 361.294C96.6766 361.654 96.2866 361.924 95.7826 362.104ZM90.9946 361.744H93.8386C94.5706 361.744 95.1286 361.606 95.5126 361.33C95.9086 361.054 96.1066 360.652 96.1066 360.124C96.1066 359.596 95.9086 359.2 95.5126 358.936C95.1286 358.672 94.5706 358.54 93.8386 358.54H90.9946V361.744ZM94.0006 365.992C94.8166 365.992 95.4286 365.86 95.8366 365.596C96.2446 365.332 96.4486 364.918 96.4486 364.354C96.4486 363.79 96.2626 363.376 95.8906 363.112C95.5186 362.836 94.9306 362.698 94.1266 362.698H90.9946V365.992H94.0006ZM104.682 360.88C105.87 360.892 106.776 361.156 107.4 361.672C108.024 362.188 108.336 362.932 108.336 363.904C108.336 364.912 108 365.686 107.328 366.226C106.656 366.766 105.696 367.03 104.448 367.018L100.704 367V357.532H101.982V360.844L104.682 360.88ZM109.92 357.532H111.198V367H109.92V357.532ZM104.376 366.046C105.252 366.058 105.912 365.884 106.356 365.524C106.812 365.152 107.04 364.612 107.04 363.904C107.04 363.208 106.818 362.692 106.374 362.356C105.93 362.02 105.264 361.846 104.376 361.834L101.982 361.798V366.01L104.376 366.046ZM123.333 357.532V367H122.055V358.666H116.115V367H114.837V357.532H123.333ZM130.871 367.09C129.959 367.09 129.137 366.886 128.405 366.478C127.673 366.058 127.097 365.482 126.677 364.75C126.257 364.018 126.047 363.19 126.047 362.266C126.047 361.342 126.257 360.514 126.677 359.782C127.097 359.05 127.673 358.48 128.405 358.072C129.137 357.664 129.959 357.46 130.871 357.46C131.783 357.46 132.605 357.664 133.337 358.072C134.069 358.48 134.639 359.05 135.047 359.782C135.467 360.514 135.677 361.342 135.677 362.266C135.677 363.19 135.467 364.018 135.047 364.75C134.639 365.482 134.069 366.058 133.337 366.478C132.605 366.886 131.783 367.09 130.871 367.09ZM130.871 365.956C131.543 365.956 132.143 365.806 132.671 365.506C133.211 365.194 133.631 364.756 133.931 364.192C134.231 363.628 134.381 362.986 134.381 362.266C134.381 361.546 134.231 360.904 133.931 360.34C133.631 359.776 133.211 359.344 132.671 359.044C132.143 358.732 131.543 358.576 130.871 358.576C130.199 358.576 129.593 358.732 129.053 359.044C128.525 359.344 128.105 359.776 127.793 360.34C127.493 360.904 127.343 361.546 127.343 362.266C127.343 362.986 127.493 363.628 127.793 364.192C128.105 364.756 128.525 365.194 129.053 365.506C129.593 365.806 130.199 365.956 130.871 365.956ZM146.096 357.532V367H144.818V358.666H140.282L140.156 361.006C140.06 362.974 139.832 364.486 139.472 365.542C139.112 366.598 138.47 367.126 137.546 367.126C137.294 367.126 136.988 367.078 136.628 366.982L136.718 365.884C136.934 365.932 137.084 365.956 137.168 365.956C137.66 365.956 138.032 365.728 138.284 365.272C138.536 364.816 138.704 364.252 138.788 363.58C138.872 362.908 138.944 362.02 139.004 360.916L139.166 357.532H146.096ZM149.729 357.532H151.007V361.726H156.965V357.532H158.243V367H156.965V362.824H151.007V367H149.729V357.532ZM170.156 362.662H162.236C162.308 363.646 162.686 364.444 163.37 365.056C164.054 365.656 164.918 365.956 165.962 365.956C166.55 365.956 167.09 365.854 167.582 365.65C168.074 365.434 168.5 365.122 168.86 364.714L169.58 365.542C169.16 366.046 168.632 366.43 167.996 366.694C167.372 366.958 166.682 367.09 165.926 367.09C164.954 367.09 164.09 366.886 163.334 366.478C162.59 366.058 162.008 365.482 161.588 364.75C161.168 364.018 160.958 363.19 160.958 362.266C160.958 361.342 161.156 360.514 161.552 359.782C161.96 359.05 162.512 358.48 163.208 358.072C163.916 357.664 164.708 357.46 165.584 357.46C166.46 357.46 167.246 357.664 167.942 358.072C168.638 358.48 169.184 359.05 169.58 359.782C169.976 360.502 170.174 361.33 170.174 362.266L170.156 362.662ZM165.584 358.558C164.672 358.558 163.904 358.852 163.28 359.44C162.668 360.016 162.32 360.772 162.236 361.708H168.95C168.866 360.772 168.512 360.016 167.888 359.44C167.276 358.852 166.508 358.558 165.584 358.558ZM173.003 357.532H174.281V361.726H180.239V357.532H181.517V367H180.239V362.824H174.281V367H173.003V357.532ZM185.149 357.532H186.427V361.726H192.385V357.532H193.663V367H192.385V362.824H186.427V367H185.149V357.532ZM201.274 360.88C202.462 360.892 203.368 361.156 203.992 361.672C204.616 362.188 204.928 362.932 204.928 363.904C204.928 364.912 204.592 365.686 203.92 366.226C203.248 366.766 202.288 367.03 201.04 367.018L197.296 367V357.532H198.574V360.844L201.274 360.88ZM206.512 357.532H207.79V367H206.512V357.532ZM200.968 366.046C201.844 366.058 202.504 365.884 202.948 365.524C203.404 365.152 203.632 364.612 203.632 363.904C203.632 363.208 203.41 362.692 202.966 362.356C202.522 362.02 201.856 361.846 200.968 361.834L198.574 361.798V366.01L200.968 366.046ZM219.708 362.662H211.788C211.86 363.646 212.238 364.444 212.922 365.056C213.606 365.656 214.47 365.956 215.514 365.956C216.102 365.956 216.642 365.854 217.134 365.65C217.626 365.434 218.052 365.122 218.412 364.714L219.132 365.542C218.712 366.046 218.184 366.43 217.548 366.694C216.924 366.958 216.234 367.09 215.478 367.09C214.506 367.09 213.642 366.886 212.886 366.478C212.142 366.058 211.56 365.482 211.14 364.75C210.72 364.018 210.51 363.19 210.51 362.266C210.51 361.342 210.708 360.514 211.104 359.782C211.512 359.05 212.064 358.48 212.76 358.072C213.468 357.664 214.26 357.46 215.136 357.46C216.012 357.46 216.798 357.664 217.494 358.072C218.19 358.48 218.736 359.05 219.132 359.782C219.528 360.502 219.726 361.33 219.726 362.266L219.708 362.662ZM215.136 358.558C214.224 358.558 213.456 358.852 212.832 359.44C212.22 360.016 211.872 360.772 211.788 361.708H218.502C218.418 360.772 218.064 360.016 217.44 359.44C216.828 358.852 216.06 358.558 215.136 358.558ZM232.144 357.46C233.032 357.46 233.836 357.664 234.556 358.072C235.276 358.468 235.84 359.032 236.248 359.764C236.656 360.496 236.86 361.33 236.86 362.266C236.86 363.214 236.656 364.054 236.248 364.786C235.84 365.518 235.276 366.088 234.556 366.496C233.848 366.892 233.044 367.09 232.144 367.09C231.376 367.09 230.68 366.934 230.056 366.622C229.444 366.298 228.94 365.83 228.544 365.218V370.492H227.266V357.532H228.49V359.404C228.874 358.78 229.378 358.3 230.002 357.964C230.638 357.628 231.352 357.46 232.144 357.46ZM232.054 365.956C232.714 365.956 233.314 365.806 233.854 365.506C234.394 365.194 234.814 364.756 235.114 364.192C235.426 363.628 235.582 362.986 235.582 362.266C235.582 361.546 235.426 360.91 235.114 360.358C234.814 359.794 234.394 359.356 233.854 359.044C233.314 358.732 232.714 358.576 232.054 358.576C231.382 358.576 230.776 358.732 230.236 359.044C229.708 359.356 229.288 359.794 228.976 360.358C228.676 360.91 228.526 361.546 228.526 362.266C228.526 362.986 228.676 363.628 228.976 364.192C229.288 364.756 229.708 365.194 230.236 365.506C230.776 365.806 231.382 365.956 232.054 365.956ZM242.811 357.46C244.047 357.46 244.995 357.772 245.655 358.396C246.315 359.008 246.645 359.92 246.645 361.132V367H245.421V365.524C245.133 366.016 244.707 366.4 244.143 366.676C243.591 366.952 242.931 367.09 242.163 367.09C241.107 367.09 240.267 366.838 239.643 366.334C239.019 365.83 238.707 365.164 238.707 364.336C238.707 363.532 238.995 362.884 239.571 362.392C240.159 361.9 241.089 361.654 242.361 361.654H245.367V361.078C245.367 360.262 245.139 359.644 244.683 359.224C244.227 358.792 243.561 358.576 242.685 358.576C242.085 358.576 241.509 358.678 240.957 358.882C240.405 359.074 239.931 359.344 239.535 359.692L238.959 358.738C239.439 358.33 240.015 358.018 240.687 357.802C241.359 357.574 242.067 357.46 242.811 357.46ZM242.361 366.082C243.081 366.082 243.699 365.92 244.215 365.596C244.731 365.26 245.115 364.78 245.367 364.156V362.608H242.397C240.777 362.608 239.967 363.172 239.967 364.3C239.967 364.852 240.177 365.29 240.597 365.614C241.017 365.926 241.605 366.082 242.361 366.082ZM254.637 357.766C255.513 357.766 256.293 357.964 256.977 358.36C257.673 358.744 258.213 359.29 258.597 359.998C258.981 360.694 259.173 361.492 259.173 362.392C259.173 363.316 258.969 364.138 258.561 364.858C258.165 365.566 257.607 366.118 256.887 366.514C256.167 366.91 255.339 367.108 254.403 367.108C252.831 367.108 251.613 366.556 250.749 365.452C249.885 364.348 249.453 362.824 249.453 360.88C249.453 358.852 249.837 357.298 250.605 356.218C251.385 355.138 252.597 354.406 254.241 354.022L258.489 353.05L258.705 354.22L254.709 355.138C253.353 355.438 252.357 355.972 251.721 356.74C251.085 357.496 250.737 358.618 250.677 360.106C251.061 359.374 251.595 358.804 252.279 358.396C252.963 357.976 253.749 357.766 254.637 357.766ZM254.439 366.046C255.099 366.046 255.687 365.896 256.203 365.596C256.731 365.284 257.139 364.852 257.427 364.3C257.727 363.748 257.877 363.124 257.877 362.428C257.877 361.732 257.733 361.12 257.445 360.592C257.157 360.064 256.749 359.656 256.221 359.368C255.705 359.068 255.111 358.918 254.439 358.918C253.767 358.918 253.167 359.068 252.639 359.368C252.123 359.656 251.715 360.064 251.415 360.592C251.127 361.12 250.983 361.732 250.983 362.428C250.983 363.124 251.127 363.748 251.415 364.3C251.715 364.852 252.129 365.284 252.657 365.596C253.185 365.896 253.779 366.046 254.439 366.046ZM265.819 367.09C264.907 367.09 264.085 366.886 263.353 366.478C262.621 366.058 262.045 365.482 261.625 364.75C261.205 364.018 260.995 363.19 260.995 362.266C260.995 361.342 261.205 360.514 261.625 359.782C262.045 359.05 262.621 358.48 263.353 358.072C264.085 357.664 264.907 357.46 265.819 357.46C266.731 357.46 267.553 357.664 268.285 358.072C269.017 358.48 269.587 359.05 269.995 359.782C270.415 360.514 270.625 361.342 270.625 362.266C270.625 363.19 270.415 364.018 269.995 364.75C269.587 365.482 269.017 366.058 268.285 366.478C267.553 366.886 266.731 367.09 265.819 367.09ZM265.819 365.956C266.491 365.956 267.091 365.806 267.619 365.506C268.159 365.194 268.579 364.756 268.879 364.192C269.179 363.628 269.329 362.986 269.329 362.266C269.329 361.546 269.179 360.904 268.879 360.34C268.579 359.776 268.159 359.344 267.619 359.044C267.091 358.732 266.491 358.576 265.819 358.576C265.147 358.576 264.541 358.732 264.001 359.044C263.473 359.344 263.053 359.776 262.741 360.34C262.441 360.904 262.291 361.546 262.291 362.266C262.291 362.986 262.441 363.628 262.741 364.192C263.053 364.756 263.473 365.194 264.001 365.506C264.541 365.806 265.147 365.956 265.819 365.956ZM279.665 358.666H276.083V367H274.805V358.666H271.223V357.532H279.665V358.666ZM285.49 360.88C286.678 360.892 287.584 361.156 288.208 361.672C288.832 362.188 289.144 362.932 289.144 363.904C289.144 364.912 288.808 365.686 288.136 366.226C287.464 366.766 286.504 367.03 285.256 367.018L281.512 367V357.532H282.79V360.844L285.49 360.88ZM290.728 357.532H292.006V367H290.728V357.532ZM285.184 366.046C286.06 366.058 286.72 365.884 287.164 365.524C287.62 365.152 287.848 364.612 287.848 363.904C287.848 363.208 287.626 362.692 287.182 362.356C286.738 362.02 286.072 361.846 285.184 361.834L282.79 361.798V366.01L285.184 366.046ZM32.7311 379.532V389H31.5611V381.512L27.7271 387.848H27.1511L23.3171 381.494V389H22.1471V379.532H23.4431L27.4571 386.354L31.5431 379.532H32.7311ZM40.3458 382.88C41.5338 382.892 42.4398 383.156 43.0638 383.672C43.6878 384.188 43.9998 384.932 43.9998 385.904C43.9998 386.912 43.6638 387.686 42.9918 388.226C42.3198 388.766 41.3598 389.03 40.1118 389.018L36.3678 389V379.532H37.6458V382.844L40.3458 382.88ZM45.5838 379.532H46.8618V389H45.5838V379.532ZM40.0398 388.046C40.9158 388.058 41.5758 387.884 42.0198 387.524C42.4758 387.152 42.7038 386.612 42.7038 385.904C42.7038 385.208 42.4818 384.692 42.0378 384.356C41.5938 384.02 40.9278 383.846 40.0398 383.834L37.6458 383.798V388.01L40.0398 388.046ZM63.7076 379.532V389H62.4296V380.666H56.4896V389H55.2116V379.532H63.7076ZM72.2185 379.46C73.1065 379.46 73.9105 379.664 74.6305 380.072C75.3505 380.468 75.9145 381.032 76.3225 381.764C76.7305 382.496 76.9345 383.33 76.9345 384.266C76.9345 385.214 76.7305 386.054 76.3225 386.786C75.9145 387.518 75.3505 388.088 74.6305 388.496C73.9225 388.892 73.1185 389.09 72.2185 389.09C71.4505 389.09 70.7545 388.934 70.1305 388.622C69.5185 388.298 69.0145 387.83 68.6185 387.218V392.492H67.3405V379.532H68.5645V381.404C68.9485 380.78 69.4525 380.3 70.0765 379.964C70.7125 379.628 71.4265 379.46 72.2185 379.46ZM72.1285 387.956C72.7885 387.956 73.3885 387.806 73.9285 387.506C74.4685 387.194 74.8885 386.756 75.1885 386.192C75.5005 385.628 75.6565 384.986 75.6565 384.266C75.6565 383.546 75.5005 382.91 75.1885 382.358C74.8885 381.794 74.4685 381.356 73.9285 381.044C73.3885 380.732 72.7885 380.576 72.1285 380.576C71.4565 380.576 70.8505 380.732 70.3105 381.044C69.7825 381.356 69.3625 381.794 69.0505 382.358C68.7505 382.91 68.6005 383.546 68.6005 384.266C68.6005 384.986 68.7505 385.628 69.0505 386.192C69.3625 386.756 69.7825 387.194 70.3105 387.506C70.8505 387.806 71.4565 387.956 72.1285 387.956ZM87.9603 384.662H80.0403C80.1123 385.646 80.4903 386.444 81.1743 387.056C81.8583 387.656 82.7223 387.956 83.7663 387.956C84.3543 387.956 84.8943 387.854 85.3863 387.65C85.8783 387.434 86.3043 387.122 86.6643 386.714L87.3843 387.542C86.9643 388.046 86.4363 388.43 85.8003 388.694C85.1763 388.958 84.4863 389.09 83.7303 389.09C82.7583 389.09 81.8943 388.886 81.1383 388.478C80.3943 388.058 79.8123 387.482 79.3923 386.75C78.9723 386.018 78.7623 385.19 78.7623 384.266C78.7623 383.342 78.9603 382.514 79.3563 381.782C79.7643 381.05 80.3163 380.48 81.0123 380.072C81.7203 379.664 82.5123 379.46 83.3883 379.46C84.2643 379.46 85.0503 379.664 85.7463 380.072C86.4423 380.48 86.9883 381.05 87.3843 381.782C87.7803 382.502 87.9783 383.33 87.9783 384.266L87.9603 384.662ZM83.3883 380.558C82.4763 380.558 81.7083 380.852 81.0843 381.44C80.4723 382.016 80.1243 382.772 80.0403 383.708H86.7543C86.6703 382.772 86.3163 382.016 85.6923 381.44C85.0803 380.852 84.3123 380.558 83.3883 380.558ZM99.8479 387.884V391.286H98.6419V389H90.1639V391.286H88.9579V387.884H89.4979C90.1339 387.848 90.5659 387.38 90.7939 386.48C91.0219 385.58 91.1779 384.32 91.2619 382.7L91.3879 379.532H98.3719V387.884H99.8479ZM92.4319 382.772C92.3719 384.116 92.2579 385.226 92.0899 386.102C91.9219 386.966 91.6219 387.56 91.1899 387.884H97.0939V380.666H92.5399L92.4319 382.772ZM106.245 389.09C105.333 389.09 104.511 388.886 103.779 388.478C103.047 388.058 102.471 387.482 102.051 386.75C101.631 386.018 101.421 385.19 101.421 384.266C101.421 383.342 101.631 382.514 102.051 381.782C102.471 381.05 103.047 380.48 103.779 380.072C104.511 379.664 105.333 379.46 106.245 379.46C107.157 379.46 107.979 379.664 108.711 380.072C109.443 380.48 110.013 381.05 110.421 381.782C110.841 382.514 111.051 383.342 111.051 384.266C111.051 385.19 110.841 386.018 110.421 386.75C110.013 387.482 109.443 388.058 108.711 388.478C107.979 388.886 107.157 389.09 106.245 389.09ZM106.245 387.956C106.917 387.956 107.517 387.806 108.045 387.506C108.585 387.194 109.005 386.756 109.305 386.192C109.605 385.628 109.755 384.986 109.755 384.266C109.755 383.546 109.605 382.904 109.305 382.34C109.005 381.776 108.585 381.344 108.045 381.044C107.517 380.732 106.917 380.576 106.245 380.576C105.573 380.576 104.967 380.732 104.427 381.044C103.899 381.344 103.479 381.776 103.167 382.34C102.867 382.904 102.717 383.546 102.717 384.266C102.717 384.986 102.867 385.628 103.167 386.192C103.479 386.756 103.899 387.194 104.427 387.506C104.967 387.806 105.573 387.956 106.245 387.956ZM117.742 389.09C116.806 389.09 115.966 388.886 115.222 388.478C114.49 388.07 113.914 387.5 113.494 386.768C113.074 386.024 112.864 385.19 112.864 384.266C112.864 383.342 113.074 382.514 113.494 381.782C113.914 381.05 114.49 380.48 115.222 380.072C115.966 379.664 116.806 379.46 117.742 379.46C118.558 379.46 119.284 379.622 119.92 379.946C120.568 380.258 121.078 380.72 121.45 381.332L120.496 381.98C120.184 381.512 119.788 381.164 119.308 380.936C118.828 380.696 118.306 380.576 117.742 380.576C117.058 380.576 116.44 380.732 115.888 381.044C115.348 381.344 114.922 381.776 114.61 382.34C114.31 382.904 114.16 383.546 114.16 384.266C114.16 384.998 114.31 385.646 114.61 386.21C114.922 386.762 115.348 387.194 115.888 387.506C116.44 387.806 117.058 387.956 117.742 387.956C118.306 387.956 118.828 387.842 119.308 387.614C119.788 387.386 120.184 387.038 120.496 386.57L121.45 387.218C121.078 387.83 120.568 388.298 119.92 388.622C119.272 388.934 118.546 389.09 117.742 389.09ZM130.409 380.666H126.827V389H125.549V380.666H121.967V379.532H130.409V380.666ZM135.514 379.46C136.75 379.46 137.698 379.772 138.358 380.396C139.018 381.008 139.348 381.92 139.348 383.132V389H138.124V387.524C137.836 388.016 137.41 388.4 136.846 388.676C136.294 388.952 135.634 389.09 134.866 389.09C133.81 389.09 132.97 388.838 132.346 388.334C131.722 387.83 131.41 387.164 131.41 386.336C131.41 385.532 131.698 384.884 132.274 384.392C132.862 383.9 133.792 383.654 135.064 383.654H138.07V383.078C138.07 382.262 137.842 381.644 137.386 381.224C136.93 380.792 136.264 380.576 135.388 380.576C134.788 380.576 134.212 380.678 133.66 380.882C133.108 381.074 132.634 381.344 132.238 381.692L131.662 380.738C132.142 380.33 132.718 380.018 133.39 379.802C134.062 379.574 134.77 379.46 135.514 379.46ZM135.064 388.082C135.784 388.082 136.402 387.92 136.918 387.596C137.434 387.26 137.818 386.78 138.07 386.156V384.608H135.1C133.48 384.608 132.67 385.172 132.67 386.3C132.67 386.852 132.88 387.29 133.3 387.614C133.72 387.926 134.308 388.082 135.064 388.082ZM148.781 384.104C150.065 384.404 150.707 385.178 150.707 386.426C150.707 387.254 150.401 387.89 149.789 388.334C149.177 388.778 148.265 389 147.053 389H142.751V379.532H146.927C148.007 379.532 148.853 379.742 149.465 380.162C150.077 380.582 150.383 381.182 150.383 381.962C150.383 382.478 150.239 382.922 149.951 383.294C149.675 383.654 149.285 383.924 148.781 384.104ZM143.993 383.744H146.837C147.569 383.744 148.127 383.606 148.511 383.33C148.907 383.054 149.105 382.652 149.105 382.124C149.105 381.596 148.907 381.2 148.511 380.936C148.127 380.672 147.569 380.54 146.837 380.54H143.993V383.744ZM146.999 387.992C147.815 387.992 148.427 387.86 148.835 387.596C149.243 387.332 149.447 386.918 149.447 386.354C149.447 385.79 149.261 385.376 148.889 385.112C148.517 384.836 147.929 384.698 147.125 384.698H143.993V387.992H146.999ZM161.442 379.532V389H160.164V380.666H155.628L155.502 383.006C155.406 384.974 155.178 386.486 154.818 387.542C154.458 388.598 153.816 389.126 152.892 389.126C152.64 389.126 152.334 389.078 151.974 388.982L152.064 387.884C152.28 387.932 152.43 387.956 152.514 387.956C153.006 387.956 153.378 387.728 153.63 387.272C153.882 386.816 154.05 386.252 154.134 385.58C154.218 384.908 154.29 384.02 154.35 382.916L154.512 379.532H161.442ZM172.347 379.532V389H171.177V385.868H168.207H167.847L165.651 389H164.265L166.623 385.688C165.891 385.484 165.327 385.136 164.931 384.644C164.535 384.152 164.337 383.528 164.337 382.772C164.337 381.716 164.697 380.912 165.417 380.36C166.137 379.808 167.121 379.532 168.369 379.532H172.347ZM165.633 382.808C165.633 384.212 166.527 384.914 168.315 384.914H171.177V380.666H168.405C166.557 380.666 165.633 381.38 165.633 382.808ZM184.271 384.662H176.351C176.423 385.646 176.801 386.444 177.485 387.056C178.169 387.656 179.033 387.956 180.077 387.956C180.665 387.956 181.205 387.854 181.697 387.65C182.189 387.434 182.615 387.122 182.975 386.714L183.695 387.542C183.275 388.046 182.747 388.43 182.111 388.694C181.487 388.958 180.797 389.09 180.041 389.09C179.069 389.09 178.205 388.886 177.449 388.478C176.705 388.058 176.123 387.482 175.703 386.75C175.283 386.018 175.073 385.19 175.073 384.266C175.073 383.342 175.271 382.514 175.667 381.782C176.075 381.05 176.627 380.48 177.323 380.072C178.031 379.664 178.823 379.46 179.699 379.46C180.575 379.46 181.361 379.664 182.057 380.072C182.753 380.48 183.299 381.05 183.695 381.782C184.091 382.502 184.289 383.33 184.289 384.266L184.271 384.662ZM179.699 380.558C178.787 380.558 178.019 380.852 177.395 381.44C176.783 382.016 176.435 382.772 176.351 383.708H183.065C182.981 382.772 182.627 382.016 182.003 381.44C181.391 380.852 180.623 380.558 179.699 380.558ZM197.702 379.532V389H196.532V381.512L192.698 387.848H192.122L188.288 381.494V389H187.118V379.532H188.414L192.428 386.354L196.514 379.532H197.702ZM212.745 380.666H207.327V389H206.049V379.532H212.745V380.666ZM217.85 379.46C219.086 379.46 220.034 379.772 220.694 380.396C221.354 381.008 221.684 381.92 221.684 383.132V389H220.46V387.524C220.172 388.016 219.746 388.4 219.182 388.676C218.63 388.952 217.97 389.09 217.202 389.09C216.146 389.09 215.306 388.838 214.682 388.334C214.058 387.83 213.746 387.164 213.746 386.336C213.746 385.532 214.034 384.884 214.61 384.392C215.198 383.9 216.128 383.654 217.4 383.654H220.406V383.078C220.406 382.262 220.178 381.644 219.722 381.224C219.266 380.792 218.6 380.576 217.724 380.576C217.124 380.576 216.548 380.678 215.996 380.882C215.444 381.074 214.97 381.344 214.574 381.692L213.998 380.738C214.478 380.33 215.054 380.018 215.726 379.802C216.398 379.574 217.106 379.46 217.85 379.46ZM217.4 388.082C218.12 388.082 218.738 387.92 219.254 387.596C219.77 387.26 220.154 386.78 220.406 386.156V384.608H217.436C215.816 384.608 215.006 385.172 215.006 386.3C215.006 386.852 215.216 387.29 215.636 387.614C216.056 387.926 216.644 388.082 217.4 388.082ZM229.965 379.46C230.853 379.46 231.657 379.664 232.377 380.072C233.097 380.468 233.661 381.032 234.069 381.764C234.477 382.496 234.681 383.33 234.681 384.266C234.681 385.214 234.477 386.054 234.069 386.786C233.661 387.518 233.097 388.088 232.377 388.496C231.669 388.892 230.865 389.09 229.965 389.09C229.197 389.09 228.501 388.934 227.877 388.622C227.265 388.298 226.761 387.83 226.365 387.218V392.492H225.087V379.532H226.311V381.404C226.695 380.78 227.199 380.3 227.823 379.964C228.459 379.628 229.173 379.46 229.965 379.46ZM229.875 387.956C230.535 387.956 231.135 387.806 231.675 387.506C232.215 387.194 232.635 386.756 232.935 386.192C233.247 385.628 233.403 384.986 233.403 384.266C233.403 383.546 233.247 382.91 232.935 382.358C232.635 381.794 232.215 381.356 231.675 381.044C231.135 380.732 230.535 380.576 229.875 380.576C229.203 380.576 228.597 380.732 228.057 381.044C227.529 381.356 227.109 381.794 226.797 382.358C226.497 382.91 226.347 383.546 226.347 384.266C226.347 384.986 226.497 385.628 226.797 386.192C227.109 386.756 227.529 387.194 228.057 387.506C228.597 387.806 229.203 387.956 229.875 387.956ZM240.632 379.46C241.868 379.46 242.816 379.772 243.476 380.396C244.136 381.008 244.466 381.92 244.466 383.132V389H243.242V387.524C242.954 388.016 242.528 388.4 241.964 388.676C241.412 388.952 240.752 389.09 239.984 389.09C238.928 389.09 238.088 388.838 237.464 388.334C236.84 387.83 236.528 387.164 236.528 386.336C236.528 385.532 236.816 384.884 237.392 384.392C237.98 383.9 238.91 383.654 240.182 383.654H243.188V383.078C243.188 382.262 242.96 381.644 242.504 381.224C242.048 380.792 241.382 380.576 240.506 380.576C239.906 380.576 239.33 380.678 238.778 380.882C238.226 381.074 237.752 381.344 237.356 381.692L236.78 380.738C237.26 380.33 237.836 380.018 238.508 379.802C239.18 379.574 239.888 379.46 240.632 379.46ZM240.182 388.082C240.902 388.082 241.52 387.92 242.036 387.596C242.552 387.26 242.936 386.78 243.188 386.156V384.608H240.218C238.598 384.608 237.788 385.172 237.788 386.3C237.788 386.852 237.998 387.29 238.418 387.614C238.838 387.926 239.426 388.082 240.182 388.082ZM247.868 379.532H249.146V383.726H255.104V379.532H256.382V389H255.104V384.824H249.146V389H247.868V379.532ZM266.674 380.666H263.092V389H261.814V380.666H258.232V379.532H266.674V380.666ZM268.522 379.532H269.8V387.056L276.118 379.532H277.252V389H275.974V381.476L269.674 389H268.522V379.532ZM289.051 379.46C289.939 379.46 290.737 379.664 291.445 380.072C292.165 380.48 292.729 381.05 293.137 381.782C293.545 382.514 293.749 383.342 293.749 384.266C293.749 385.19 293.545 386.018 293.137 386.75C292.729 387.482 292.165 388.058 291.445 388.478C290.737 388.886 289.939 389.09 289.051 389.09C288.211 389.09 287.449 388.91 286.765 388.55C286.081 388.178 285.523 387.668 285.091 387.02C284.671 386.372 284.425 385.628 284.353 384.788H282.193V389H280.915V379.532H282.193V383.618H284.371C284.467 382.802 284.725 382.082 285.145 381.458C285.577 380.822 286.129 380.33 286.801 379.982C287.473 379.634 288.223 379.46 289.051 379.46ZM289.051 387.974C289.699 387.974 290.281 387.818 290.797 387.506C291.325 387.194 291.739 386.756 292.039 386.192C292.339 385.628 292.489 384.986 292.489 384.266C292.489 383.546 292.339 382.904 292.039 382.34C291.739 381.776 291.325 381.344 290.797 381.044C290.281 380.732 289.699 380.576 289.051 380.576C288.403 380.576 287.815 380.732 287.287 381.044C286.771 381.344 286.363 381.776 286.063 382.34C285.763 382.904 285.613 383.546 285.613 384.266C285.613 384.986 285.763 385.628 286.063 386.192C286.363 386.756 286.771 387.194 287.287 387.506C287.815 387.818 288.403 387.974 289.051 387.974ZM87.8942 411.09C86.9582 411.09 86.1182 410.886 85.3742 410.478C84.6422 410.07 84.0662 409.5 83.6462 408.768C83.2262 408.024 83.0162 407.19 83.0162 406.266C83.0162 405.342 83.2262 404.514 83.6462 403.782C84.0662 403.05 84.6422 402.48 85.3742 402.072C86.1182 401.664 86.9582 401.46 87.8942 401.46C88.7102 401.46 89.4362 401.622 90.0722 401.946C90.7202 402.258 91.2302 402.72 91.6022 403.332L90.6482 403.98C90.3362 403.512 89.9402 403.164 89.4602 402.936C88.9802 402.696 88.4582 402.576 87.8942 402.576C87.2102 402.576 86.5922 402.732 86.0402 403.044C85.5002 403.344 85.0742 403.776 84.7622 404.34C84.4622 404.904 84.3122 405.546 84.3122 406.266C84.3122 406.998 84.4622 407.646 84.7622 408.21C85.0742 408.762 85.5002 409.194 86.0402 409.506C86.5922 409.806 87.2102 409.956 87.8942 409.956C88.4582 409.956 88.9802 409.842 89.4602 409.614C89.9402 409.386 90.3362 409.038 90.6482 408.57L91.6022 409.218C91.2302 409.83 90.7202 410.298 90.0722 410.622C89.4242 410.934 88.6982 411.09 87.8942 411.09ZM98.9548 401.46C99.8428 401.46 100.647 401.664 101.367 402.072C102.087 402.468 102.651 403.032 103.059 403.764C103.467 404.496 103.671 405.33 103.671 406.266C103.671 407.214 103.467 408.054 103.059 408.786C102.651 409.518 102.087 410.088 101.367 410.496C100.659 410.892 99.8548 411.09 98.9548 411.09C98.1868 411.09 97.4908 410.934 96.8668 410.622C96.2548 410.298 95.7508 409.83 95.3548 409.218V414.492H94.0768V401.532H95.3008V403.404C95.6848 402.78 96.1888 402.3 96.8128 401.964C97.4488 401.628 98.1628 401.46 98.9548 401.46ZM98.8648 409.956C99.5248 409.956 100.125 409.806 100.665 409.506C101.205 409.194 101.625 408.756 101.925 408.192C102.237 407.628 102.393 406.986 102.393 406.266C102.393 405.546 102.237 404.91 101.925 404.358C101.625 403.794 101.205 403.356 100.665 403.044C100.125 402.732 99.5248 402.576 98.8648 402.576C98.1928 402.576 97.5868 402.732 97.0468 403.044C96.5188 403.356 96.0988 403.794 95.7868 404.358C95.4868 404.91 95.3368 405.546 95.3368 406.266C95.3368 406.986 95.4868 407.628 95.7868 408.192C96.0988 408.756 96.5188 409.194 97.0468 409.506C97.5868 409.806 98.1928 409.956 98.8648 409.956ZM110.323 411.09C109.411 411.09 108.589 410.886 107.857 410.478C107.125 410.058 106.549 409.482 106.129 408.75C105.709 408.018 105.499 407.19 105.499 406.266C105.499 405.342 105.709 404.514 106.129 403.782C106.549 403.05 107.125 402.48 107.857 402.072C108.589 401.664 109.411 401.46 110.323 401.46C111.235 401.46 112.057 401.664 112.789 402.072C113.521 402.48 114.091 403.05 114.499 403.782C114.919 404.514 115.129 405.342 115.129 406.266C115.129 407.19 114.919 408.018 114.499 408.75C114.091 409.482 113.521 410.058 112.789 410.478C112.057 410.886 111.235 411.09 110.323 411.09ZM110.323 409.956C110.995 409.956 111.595 409.806 112.123 409.506C112.663 409.194 113.083 408.756 113.383 408.192C113.683 407.628 113.833 406.986 113.833 406.266C113.833 405.546 113.683 404.904 113.383 404.34C113.083 403.776 112.663 403.344 112.123 403.044C111.595 402.732 110.995 402.576 110.323 402.576C109.651 402.576 109.045 402.732 108.505 403.044C107.977 403.344 107.557 403.776 107.245 404.34C106.945 404.904 106.795 405.546 106.795 406.266C106.795 406.986 106.945 407.628 107.245 408.192C107.557 408.756 107.977 409.194 108.505 409.506C109.045 409.806 109.651 409.956 110.323 409.956ZM121.298 406.788H119.138V411H117.86V401.532H119.138V405.69H121.316L124.646 401.532H126.032L122.306 406.122L126.302 411H124.79L121.298 406.788ZM131.891 411.09C130.979 411.09 130.157 410.886 129.425 410.478C128.693 410.058 128.117 409.482 127.697 408.75C127.277 408.018 127.067 407.19 127.067 406.266C127.067 405.342 127.277 404.514 127.697 403.782C128.117 403.05 128.693 402.48 129.425 402.072C130.157 401.664 130.979 401.46 131.891 401.46C132.803 401.46 133.625 401.664 134.357 402.072C135.089 402.48 135.659 403.05 136.067 403.782C136.487 404.514 136.697 405.342 136.697 406.266C136.697 407.19 136.487 408.018 136.067 408.75C135.659 409.482 135.089 410.058 134.357 410.478C133.625 410.886 132.803 411.09 131.891 411.09ZM131.891 409.956C132.563 409.956 133.163 409.806 133.691 409.506C134.231 409.194 134.651 408.756 134.951 408.192C135.251 407.628 135.401 406.986 135.401 406.266C135.401 405.546 135.251 404.904 134.951 404.34C134.651 403.776 134.231 403.344 133.691 403.044C133.163 402.732 132.563 402.576 131.891 402.576C131.219 402.576 130.613 402.732 130.073 403.044C129.545 403.344 129.125 403.776 128.813 404.34C128.513 404.904 128.363 405.546 128.363 406.266C128.363 406.986 128.513 407.628 128.813 408.192C129.125 408.756 129.545 409.194 130.073 409.506C130.613 409.806 131.219 409.956 131.891 409.956ZM150.012 401.532V411H148.842V403.512L145.008 409.848H144.432L140.598 403.494V411H139.428V401.532H140.724L144.738 408.354L148.824 401.532H150.012ZM167.594 409.884V413.286H166.388V411H157.91V413.286H156.704V409.884H157.244C157.88 409.848 158.312 409.38 158.54 408.48C158.768 407.58 158.924 406.32 159.008 404.7L159.134 401.532H166.118V409.884H167.594ZM160.178 404.772C160.118 406.116 160.004 407.226 159.836 408.102C159.668 408.966 159.368 409.56 158.936 409.884H164.84V402.666H160.286L160.178 404.772ZM173.991 411.09C173.079 411.09 172.257 410.886 171.525 410.478C170.793 410.058 170.217 409.482 169.797 408.75C169.377 408.018 169.167 407.19 169.167 406.266C169.167 405.342 169.377 404.514 169.797 403.782C170.217 403.05 170.793 402.48 171.525 402.072C172.257 401.664 173.079 401.46 173.991 401.46C174.903 401.46 175.725 401.664 176.457 402.072C177.189 402.48 177.759 403.05 178.167 403.782C178.587 404.514 178.797 405.342 178.797 406.266C178.797 407.19 178.587 408.018 178.167 408.75C177.759 409.482 177.189 410.058 176.457 410.478C175.725 410.886 174.903 411.09 173.991 411.09ZM173.991 409.956C174.663 409.956 175.263 409.806 175.791 409.506C176.331 409.194 176.751 408.756 177.051 408.192C177.351 407.628 177.501 406.986 177.501 406.266C177.501 405.546 177.351 404.904 177.051 404.34C176.751 403.776 176.331 403.344 175.791 403.044C175.263 402.732 174.663 402.576 173.991 402.576C173.319 402.576 172.713 402.732 172.173 403.044C171.645 403.344 171.225 403.776 170.913 404.34C170.613 404.904 170.463 405.546 170.463 406.266C170.463 406.986 170.613 407.628 170.913 408.192C171.225 408.756 171.645 409.194 172.173 409.506C172.713 409.806 173.319 409.956 173.991 409.956ZM189.641 403.8C190.961 403.872 191.963 404.232 192.647 404.88C193.343 405.516 193.691 406.35 193.691 407.382C193.691 408.102 193.517 408.744 193.169 409.308C192.821 409.86 192.305 410.298 191.621 410.622C190.937 410.946 190.103 411.108 189.119 411.108C188.207 411.108 187.343 410.964 186.527 410.676C185.723 410.376 185.075 409.98 184.583 409.488L185.213 408.462C185.633 408.894 186.191 409.248 186.887 409.524C187.583 409.788 188.327 409.92 189.119 409.92C190.151 409.92 190.949 409.698 191.513 409.254C192.077 408.798 192.359 408.174 192.359 407.382C192.359 406.602 192.077 405.99 191.513 405.546C190.949 405.102 190.097 404.88 188.957 404.88H188.057V403.926L191.549 399.552H185.105V398.4H193.205V399.318L189.641 403.8ZM208.85 401.532V411H207.572V402.666H203.036L202.91 405.006C202.814 406.974 202.586 408.486 202.226 409.542C201.866 410.598 201.224 411.126 200.3 411.126C200.048 411.126 199.742 411.078 199.382 410.982L199.472 409.884C199.688 409.932 199.838 409.956 199.922 409.956C200.414 409.956 200.786 409.728 201.038 409.272C201.29 408.816 201.458 408.252 201.542 407.58C201.626 406.908 201.698 406.02 201.758 404.916L201.92 401.532H208.85ZM220.763 406.662H212.843C212.915 407.646 213.293 408.444 213.977 409.056C214.661 409.656 215.525 409.956 216.569 409.956C217.157 409.956 217.697 409.854 218.189 409.65C218.681 409.434 219.107 409.122 219.467 408.714L220.187 409.542C219.767 410.046 219.239 410.43 218.603 410.694C217.979 410.958 217.289 411.09 216.533 411.09C215.561 411.09 214.697 410.886 213.941 410.478C213.197 410.058 212.615 409.482 212.195 408.75C211.775 408.018 211.565 407.19 211.565 406.266C211.565 405.342 211.763 404.514 212.159 403.782C212.567 403.05 213.119 402.48 213.815 402.072C214.523 401.664 215.315 401.46 216.191 401.46C217.067 401.46 217.853 401.664 218.549 402.072C219.245 402.48 219.791 403.05 220.187 403.782C220.583 404.502 220.781 405.33 220.781 406.266L220.763 406.662ZM216.191 402.558C215.279 402.558 214.511 402.852 213.887 403.44C213.275 404.016 212.927 404.772 212.843 405.708H219.557C219.473 404.772 219.119 404.016 218.495 403.44C217.883 402.852 217.115 402.558 216.191 402.558ZM229.848 402.666H226.266V411H224.988V402.666H221.406V401.532H229.848V402.666ZM230.977 411.09C230.713 411.09 230.485 410.994 230.293 410.802C230.113 410.61 230.023 410.376 230.023 410.1C230.023 409.824 230.113 409.596 230.293 409.416C230.485 409.224 230.713 409.128 230.977 409.128C231.241 409.128 231.469 409.224 231.661 409.416C231.853 409.596 231.949 409.824 231.949 410.1C231.949 410.376 231.853 410.61 231.661 410.802C231.469 410.994 231.241 411.09 230.977 411.09Z" fill="white"/>
<path d="M171.357 219.857C171.357 225.577 166.719 230.214 161 230.214C155.28 230.214 150.643 225.577 150.643 219.857C150.643 214.137 155.28 209.5 161 209.5C166.719 209.5 171.357 214.137 171.357 219.857Z" fill="white"/>
<path d="M185.857 203.286H136.143C136.143 206.807 133.451 209.5 129.929 209.5V296.5C133.451 296.5 136.143 299.192 136.143 302.714H185.857C185.857 299.192 188.55 296.5 192.072 296.5V209.5C188.55 209.5 185.857 206.807 185.857 203.286ZM161 205.357C169.079 205.357 175.5 211.779 175.5 219.857C175.5 224.621 173.221 228.971 169.286 231.665V250.514L161 244.922L152.714 250.514V231.665C146.085 227.107 144.429 217.993 149.193 211.571C151.886 207.636 156.236 205.357 161 205.357ZM144.429 257.143H177.572V261.286H144.429V257.143ZM154.786 296.5H142.357V292.357H154.786V296.5ZM179.643 296.5H167.214V292.357H179.643V296.5ZM187.929 286.143H134.072V282H187.929V286.143ZM187.929 277.857H134.072V273.714H187.929V277.857ZM187.929 269.571H134.072V265.428H187.929V269.571Z" fill="white"/>
<path d="M156.857 233.736V242.85L161 240.157L165.143 242.85V233.736C162.451 234.564 159.55 234.564 156.857 233.736Z" fill="white"/>
<path d="M121.643 195V311H200.357V195H121.643ZM196.214 300.643H192.071C190.828 300.643 190 301.471 190 302.714V306.857H132V302.714C132 301.471 131.171 300.643 129.928 300.643H125.785V205.357H129.928C131.171 205.357 132 204.529 132 203.286V199.143H190V203.286C190 204.529 190.828 205.357 192.071 205.357H196.214V300.643Z" fill="white"/>
<path d="M66.3321 96.4C68.0681 96.4 69.5708 96.6893 70.8401 97.268C72.1281 97.8467 73.1174 98.668 73.8081 99.732C74.4988 100.796 74.8441 102.056 74.8441 103.512C74.8441 104.949 74.4988 106.209 73.8081 107.292C73.1174 108.356 72.1281 109.177 70.8401 109.756C69.5708 110.316 68.0681 110.596 66.3321 110.596H62.3841V116H57.8481V96.4H66.3321ZM66.0801 106.9C67.4428 106.9 68.4788 106.611 69.1881 106.032C69.8974 105.435 70.2521 104.595 70.2521 103.512C70.2521 102.411 69.8974 101.571 69.1881 100.992C68.4788 100.395 67.4428 100.096 66.0801 100.096H62.3841V106.9H66.0801ZM83.2157 100.712C85.549 100.712 87.341 101.272 88.5917 102.392C89.8423 103.493 90.4677 105.164 90.4677 107.404V116H86.3797V114.124C85.5583 115.524 84.0277 116.224 81.7877 116.224C80.6303 116.224 79.6223 116.028 78.7637 115.636C77.9237 115.244 77.2797 114.703 76.8317 114.012C76.3837 113.321 76.1597 112.537 76.1597 111.66C76.1597 110.26 76.6823 109.159 77.7277 108.356C78.7917 107.553 80.425 107.152 82.6277 107.152H86.0997C86.0997 106.2 85.8103 105.472 85.2317 104.968C84.653 104.445 83.785 104.184 82.6277 104.184C81.825 104.184 81.0317 104.315 80.2477 104.576C79.4823 104.819 78.829 105.155 78.2877 105.584L76.7197 102.532C77.541 101.953 78.521 101.505 79.6597 101.188C80.817 100.871 82.0023 100.712 83.2157 100.712ZM82.8797 113.284C83.6263 113.284 84.289 113.116 84.8677 112.78C85.4463 112.425 85.857 111.912 86.0997 111.24V109.7H83.1037C81.3117 109.7 80.4157 110.288 80.4157 111.464C80.4157 112.024 80.6303 112.472 81.0597 112.808C81.5077 113.125 82.1143 113.284 82.8797 113.284ZM101.43 116.224C99.8248 116.224 98.3781 115.897 97.0901 115.244C95.8208 114.572 94.8221 113.648 94.0941 112.472C93.3848 111.296 93.0301 109.961 93.0301 108.468C93.0301 106.975 93.3848 105.64 94.0941 104.464C94.8221 103.288 95.8208 102.373 97.0901 101.72C98.3781 101.048 99.8248 100.712 101.43 100.712C103.017 100.712 104.398 101.048 105.574 101.72C106.769 102.373 107.637 103.316 108.178 104.548L104.79 106.368C104.006 104.987 102.877 104.296 101.402 104.296C100.263 104.296 99.3208 104.669 98.5741 105.416C97.8274 106.163 97.4541 107.18 97.4541 108.468C97.4541 109.756 97.8274 110.773 98.5741 111.52C99.3208 112.267 100.263 112.64 101.402 112.64C102.895 112.64 104.025 111.949 104.79 110.568L108.178 112.416C107.637 113.611 106.769 114.544 105.574 115.216C104.398 115.888 103.017 116.224 101.43 116.224ZM133.82 100.936V116H110.832V100.936H115.172V112.416H120.184V100.936H124.524V112.416H129.48V100.936H133.82ZM138.012 100.936H142.352V109.896L149.688 100.936H153.692V116H149.352V107.04L142.044 116H138.012V100.936ZM166.767 100.712C168.167 100.712 169.436 101.039 170.575 101.692C171.732 102.327 172.638 103.232 173.291 104.408C173.944 105.565 174.271 106.919 174.271 108.468C174.271 110.017 173.944 111.38 173.291 112.556C172.638 113.713 171.732 114.619 170.575 115.272C169.436 115.907 168.167 116.224 166.767 116.224C164.844 116.224 163.332 115.617 162.231 114.404V121.432H157.863V100.936H162.035V102.672C163.118 101.365 164.695 100.712 166.767 100.712ZM166.011 112.64C167.131 112.64 168.046 112.267 168.755 111.52C169.483 110.755 169.847 109.737 169.847 108.468C169.847 107.199 169.483 106.191 168.755 105.444C168.046 104.679 167.131 104.296 166.011 104.296C164.891 104.296 163.967 104.679 163.239 105.444C162.53 106.191 162.175 107.199 162.175 108.468C162.175 109.737 162.53 110.755 163.239 111.52C163.967 112.267 164.891 112.64 166.011 112.64ZM191.976 108.524C191.976 108.58 191.948 108.972 191.892 109.7H180.496C180.702 110.633 181.187 111.371 181.952 111.912C182.718 112.453 183.67 112.724 184.808 112.724C185.592 112.724 186.283 112.612 186.88 112.388C187.496 112.145 188.066 111.772 188.588 111.268L190.912 113.788C189.494 115.412 187.422 116.224 184.696 116.224C182.998 116.224 181.495 115.897 180.188 115.244C178.882 114.572 177.874 113.648 177.164 112.472C176.455 111.296 176.1 109.961 176.1 108.468C176.1 106.993 176.446 105.668 177.136 104.492C177.846 103.297 178.807 102.373 180.02 101.72C181.252 101.048 182.624 100.712 184.136 100.712C185.611 100.712 186.946 101.029 188.14 101.664C189.335 102.299 190.268 103.213 190.94 104.408C191.631 105.584 191.976 106.956 191.976 108.524ZM184.164 104.016C183.175 104.016 182.344 104.296 181.672 104.856C181 105.416 180.59 106.181 180.44 107.152H187.86C187.711 106.2 187.3 105.444 186.628 104.884C185.956 104.305 185.135 104.016 184.164 104.016ZM195.325 100.936H199.665V106.816H206.217V100.936H210.585V116H206.217V110.372H199.665V116H195.325V100.936ZM214.766 100.936H219.106V106.816H225.658V100.936H230.026V116H225.658V110.372H219.106V116H214.766V100.936ZM240.059 100.712C242.393 100.712 244.185 101.272 245.435 102.392C246.686 103.493 247.311 105.164 247.311 107.404V116H243.223V114.124C242.402 115.524 240.871 116.224 238.631 116.224C237.474 116.224 236.466 116.028 235.607 115.636C234.767 115.244 234.123 114.703 233.675 114.012C233.227 113.321 233.003 112.537 233.003 111.66C233.003 110.26 233.526 109.159 234.571 108.356C235.635 107.553 237.269 107.152 239.471 107.152H242.943C242.943 106.2 242.654 105.472 242.075 104.968C241.497 104.445 240.629 104.184 239.471 104.184C238.669 104.184 237.875 104.315 237.091 104.576C236.326 104.819 235.673 105.155 235.131 105.584L233.563 102.532C234.385 101.953 235.365 101.505 236.503 101.188C237.661 100.871 238.846 100.712 240.059 100.712ZM239.723 113.284C240.47 113.284 241.133 113.116 241.711 112.78C242.29 112.425 242.701 111.912 242.943 111.24V109.7H239.947C238.155 109.7 237.259 110.288 237.259 111.464C237.259 112.024 237.474 112.472 237.903 112.808C238.351 113.125 238.958 113.284 239.723 113.284ZM264.49 100.936V116H260.598V111.688H257.378L254.522 116H249.874L253.318 111.072C252.273 110.661 251.47 110.073 250.91 109.308C250.369 108.524 250.098 107.581 250.098 106.48C250.098 104.707 250.733 103.344 252.002 102.392C253.29 101.421 255.054 100.936 257.294 100.936H264.49ZM257.378 104.492C256.445 104.492 255.735 104.66 255.25 104.996C254.783 105.332 254.55 105.873 254.55 106.62C254.55 107.367 254.774 107.917 255.222 108.272C255.689 108.608 256.389 108.776 257.322 108.776H260.598V104.492H257.378ZM105.537 138.52H97.8091V150H93.4691V134.936H105.537V138.52ZM113.704 134.712C116.037 134.712 117.829 135.272 119.08 136.392C120.331 137.493 120.956 139.164 120.956 141.404V150H116.868V148.124C116.047 149.524 114.516 150.224 112.276 150.224C111.119 150.224 110.111 150.028 109.252 149.636C108.412 149.244 107.768 148.703 107.32 148.012C106.872 147.321 106.648 146.537 106.648 145.66C106.648 144.26 107.171 143.159 108.216 142.356C109.28 141.553 110.913 141.152 113.116 141.152H116.588C116.588 140.2 116.299 139.472 115.72 138.968C115.141 138.445 114.273 138.184 113.116 138.184C112.313 138.184 111.52 138.315 110.736 138.576C109.971 138.819 109.317 139.155 108.776 139.584L107.208 136.532C108.029 135.953 109.009 135.505 110.148 135.188C111.305 134.871 112.491 134.712 113.704 134.712ZM113.368 147.284C114.115 147.284 114.777 147.116 115.356 146.78C115.935 146.425 116.345 145.912 116.588 145.24V143.7H113.592C111.8 143.7 110.904 144.288 110.904 145.464C110.904 146.024 111.119 146.472 111.548 146.808C111.996 147.125 112.603 147.284 113.368 147.284ZM133.626 134.712C135.026 134.712 136.296 135.039 137.434 135.692C138.592 136.327 139.497 137.232 140.15 138.408C140.804 139.565 141.13 140.919 141.13 142.468C141.13 144.017 140.804 145.38 140.15 146.556C139.497 147.713 138.592 148.619 137.434 149.272C136.296 149.907 135.026 150.224 133.626 150.224C131.704 150.224 130.192 149.617 129.09 148.404V155.432H124.722V134.936H128.894V136.672C129.977 135.365 131.554 134.712 133.626 134.712ZM132.87 146.64C133.99 146.64 134.905 146.267 135.614 145.52C136.342 144.755 136.706 143.737 136.706 142.468C136.706 141.199 136.342 140.191 135.614 139.444C134.905 138.679 133.99 138.296 132.87 138.296C131.75 138.296 130.826 138.679 130.098 139.444C129.389 140.191 129.034 141.199 129.034 142.468C129.034 143.737 129.389 144.755 130.098 145.52C130.826 146.267 131.75 146.64 132.87 146.64ZM149.798 134.712C152.131 134.712 153.923 135.272 155.174 136.392C156.424 137.493 157.05 139.164 157.05 141.404V150H152.962V148.124C152.14 149.524 150.61 150.224 148.37 150.224C147.212 150.224 146.204 150.028 145.346 149.636C144.506 149.244 143.862 148.703 143.414 148.012C142.966 147.321 142.742 146.537 142.742 145.66C142.742 144.26 143.264 143.159 144.31 142.356C145.374 141.553 147.007 141.152 149.21 141.152H152.682C152.682 140.2 152.392 139.472 151.814 138.968C151.235 138.445 150.367 138.184 149.21 138.184C148.407 138.184 147.614 138.315 146.83 138.576C146.064 138.819 145.411 139.155 144.87 139.584L143.302 136.532C144.123 135.953 145.103 135.505 146.242 135.188C147.399 134.871 148.584 134.712 149.798 134.712ZM149.462 147.284C150.208 147.284 150.871 147.116 151.45 146.78C152.028 146.425 152.439 145.912 152.682 145.24V143.7H149.686C147.894 143.7 146.998 144.288 146.998 145.464C146.998 146.024 147.212 146.472 147.642 146.808C148.09 147.125 148.696 147.284 149.462 147.284ZM160.844 134.936H165.184V140.816H171.736V134.936H176.104V150H171.736V144.372H165.184V150H160.844V134.936ZM192.942 138.52H187.846V150H183.506V138.52H178.41V134.936H192.942V138.52ZM195.27 134.936H199.61V143.896L206.946 134.936H210.95V150H206.61V141.04L199.302 150H195.27V134.936ZM228.533 134.936V150H224.641V145.688H221.421L218.565 150H213.917L217.361 145.072C216.315 144.661 215.513 144.073 214.953 143.308C214.411 142.524 214.141 141.581 214.141 140.48C214.141 138.707 214.775 137.344 216.045 136.392C217.333 135.421 219.097 134.936 221.337 134.936H228.533ZM221.421 138.492C220.487 138.492 219.778 138.66 219.293 138.996C218.826 139.332 218.593 139.873 218.593 140.62C218.593 141.367 218.817 141.917 219.265 142.272C219.731 142.608 220.431 142.776 221.365 142.776H224.641V138.492H221.421Z" fill="white"/>
</svg>
