<svg viewBox="0 0 93 93" fill="none" xmlns="http://www.w3.org/2000/svg">
<path d="M11.6249 0H61.0107L87.1873 26.075V87.1876C87.1873 90.3988 84.5835 93 81.3749 93H11.6249C8.41636 93 5.8125 90.3988 5.8125 87.1876V5.81244C5.8125 2.60115 8.41666 0 11.6249 0Z" fill="#E2574C"/>
<path d="M87.1032 26.1562H66.8437C63.6351 26.1562 61.0312 23.5524 61.0312 20.3438V0.0581055L87.1032 26.1562Z" fill="#B53629"/>
<path d="M65.385 44.0675C66.3587 44.0675 66.8354 43.2189 66.8354 42.3965C66.8354 41.5449 66.3383 40.7224 65.385 40.7224H59.8399C58.7559 40.7224 58.1514 41.6203 58.1514 42.6115V56.2388C58.1514 57.4537 58.8431 58.1279 59.7789 58.1279C60.709 58.1279 61.4036 57.4537 61.4036 56.2388V52.4986H64.7575C65.7979 52.4986 66.3182 51.6469 66.3182 50.8013C66.3182 49.9732 65.7979 49.1504 64.7575 49.1504H61.4036V44.0675H65.385ZM46.6426 40.7224H42.5854C41.4839 40.7224 40.7021 41.4781 40.7021 42.5998V56.2505C40.7021 57.6425 41.8267 58.0786 42.6317 58.0786H46.8895C51.9288 58.0786 55.2565 54.7626 55.2565 49.6445C55.2538 44.2332 52.121 40.7224 46.6426 40.7224ZM46.8375 54.7133H44.3641V44.088H46.5933C49.9676 44.088 51.4351 46.352 51.4351 49.4761C51.4351 52.3999 49.9934 54.7133 46.8375 54.7133ZM31.9748 40.7224H27.9555C26.8191 40.7224 26.1855 41.4721 26.1855 42.6115V56.2388C26.1855 57.4537 26.9121 58.1279 27.8885 58.1279C28.8649 58.1279 29.5914 57.4537 29.5914 56.2388V52.2601H32.1111C35.2207 52.2601 37.787 50.0571 37.787 46.5144C37.7873 43.0475 35.3112 40.7224 31.9748 40.7224ZM31.9081 49.0635H29.5917V43.9223H31.9081C33.338 43.9223 34.2476 45.0382 34.2476 46.4943C34.2446 47.9476 33.338 49.0635 31.9081 49.0635Z" fill="white"/>
</svg>
