<svg viewBox="0 0 28 28" fill="none" xmlns="http://www.w3.org/2000/svg">
<g clip-path="url(#clip0)">
<path d="M11.5941 16.4056C8.92155 13.733 8.3181 11.0605 8.18196 9.98973C8.14392 9.69367 8.24581 9.39676 8.45762 9.18642L10.6204 7.02463C10.9385 6.70668 10.995 6.21117 10.7565 5.8298L7.313 0.482768C7.04918 0.0604744 6.50748 -0.0919356 6.06217 0.130837L0.5341 2.73435C0.17399 2.91168 -0.0378213 3.29428 0.00306515 3.6936C0.29272 6.44532 1.49238 13.2097 8.13996 19.8578C14.7875 26.5059 21.551 27.705 24.3042 27.9947C24.7035 28.0356 25.0861 27.8238 25.2634 27.4637L27.8669 21.9356C28.0889 21.4912 27.9375 20.951 27.5169 20.6867L22.1699 17.2442C21.7887 17.0054 21.2933 17.0615 20.9751 17.3793L18.8133 19.5421C18.6029 19.7539 18.306 19.8558 18.01 19.8177C16.9392 19.6816 14.2667 19.0781 11.5941 16.4056Z" fill="white"/>
<path d="M22.2066 14.9655C21.6734 14.9655 21.2411 14.5332 21.2411 14C21.2366 10.0026 17.9971 6.76313 13.9997 6.75861C13.4665 6.75861 13.0342 6.32633 13.0342 5.79309C13.0342 5.25985 13.4665 4.82758 13.9997 4.82758C19.0632 4.83316 23.1665 8.93652 23.1721 14C23.1721 14.5332 22.7398 14.9655 22.2066 14.9655Z" fill="white"/>
<path d="M27.0342 14.9655C26.5009 14.9655 26.0687 14.5332 26.0687 14C26.0612 7.33758 20.6621 1.93848 13.9997 1.93103C13.4665 1.93103 13.0342 1.49876 13.0342 0.965517C13.0342 0.432277 13.4665 0 13.9997 0C21.7282 0.00851387 27.9912 6.27154 27.9997 14C27.9997 14.2561 27.898 14.5017 27.7169 14.6827C27.5358 14.8638 27.2903 14.9655 27.0342 14.9655Z" fill="white"/>
</g>
<defs>
<clipPath id="clip0">
<rect width="28" height="28" fill="white"/>
</clipPath>
</defs>
</svg>
