<svg viewBox="0 0 308 475" fill="none" xmlns="http://www.w3.org/2000/svg">
<path d="M8.04789 83.4482L296.048 5.8112C300.814 4.52641 305.5 8.11654 305.5 13.0527V465C305.5 469.142 302.142 472.5 298 472.5H10C5.85787 472.5 2.5 469.142 2.5 465V90.6897C2.5 87.2994 4.77442 84.3306 8.04789 83.4482Z" fill="#539BA9" stroke="white" stroke-width="5"/>
<path d="M31.9714 337.4V350H30.6574V344.186H22.7734V350H21.4414V337.4H22.7734V343.016H30.6574V337.4H31.9714ZM35.9186 340.532H37.1966V348.056L43.5146 340.532H44.6486V350H43.3706V342.476L37.0706 350H35.9186V340.532ZM52.7258 345.068C53.3978 345.224 53.9138 345.494 54.2738 345.878C54.6458 346.262 54.8318 346.73 54.8318 347.282C54.8318 347.834 54.6398 348.326 54.2558 348.758C53.8838 349.19 53.3738 349.526 52.7258 349.766C52.0778 349.994 51.3638 350.108 50.5838 350.108C49.8998 350.108 49.2278 350.012 48.5678 349.82C47.9078 349.616 47.3318 349.322 46.8398 348.938L47.2718 347.984C47.7038 348.308 48.2078 348.56 48.7838 348.74C49.3598 348.92 49.9418 349.01 50.5298 349.01C51.4058 349.01 52.1198 348.848 52.6718 348.524C53.2358 348.188 53.5178 347.738 53.5178 347.174C53.5178 346.67 53.2898 346.28 52.8338 346.004C52.3778 345.716 51.7538 345.572 50.9618 345.572H49.3418V344.636H50.8898C51.5978 344.636 52.1678 344.504 52.5998 344.24C53.0318 343.964 53.2478 343.598 53.2478 343.142C53.2478 342.638 53.0018 342.242 52.5098 341.954C52.0298 341.666 51.3998 341.522 50.6198 341.522C49.5998 341.522 48.5918 341.78 47.5958 342.296L47.2358 341.306C48.3638 340.718 49.5338 340.424 50.7458 340.424C51.4658 340.424 52.1138 340.532 52.6898 340.748C53.2778 340.952 53.7338 341.246 54.0578 341.63C54.3938 342.014 54.5618 342.458 54.5618 342.962C54.5618 343.442 54.3938 343.868 54.0578 344.24C53.7338 344.612 53.2898 344.888 52.7258 345.068ZM61.171 345.788H59.011V350H57.733V340.532H59.011V344.69H61.189L64.519 340.532H65.905L62.179 345.122L66.175 350H64.663L61.171 345.788ZM68.192 340.532H69.47V348.056L75.788 340.532H76.922V350H75.644V342.476L69.344 350H68.192V340.532ZM88.8646 345.662H80.9446C81.0166 346.646 81.3946 347.444 82.0786 348.056C82.7626 348.656 83.6266 348.956 84.6706 348.956C85.2586 348.956 85.7986 348.854 86.2906 348.65C86.7826 348.434 87.2086 348.122 87.5686 347.714L88.2886 348.542C87.8686 349.046 87.3406 349.43 86.7046 349.694C86.0806 349.958 85.3906 350.09 84.6346 350.09C83.6626 350.09 82.7986 349.886 82.0426 349.478C81.2986 349.058 80.7166 348.482 80.2966 347.75C79.8766 347.018 79.6666 346.19 79.6666 345.266C79.6666 344.342 79.8646 343.514 80.2606 342.782C80.6686 342.05 81.2206 341.48 81.9166 341.072C82.6246 340.664 83.4166 340.46 84.2926 340.46C85.1686 340.46 85.9546 340.664 86.6506 341.072C87.3466 341.48 87.8926 342.05 88.2886 342.782C88.6846 343.502 88.8826 344.33 88.8826 345.266L88.8646 345.662ZM84.2926 341.558C83.3806 341.558 82.6126 341.852 81.9886 342.44C81.3766 343.016 81.0286 343.772 80.9446 344.708H87.6586C87.5746 343.772 87.2206 343.016 86.5966 342.44C85.9846 341.852 85.2166 341.558 84.2926 341.558ZM108.968 348.848V352.952H107.726V350H96.7285V337.4H98.0425V348.848H105.656V337.4H106.97V348.848H108.968ZM119.327 345.662H111.407C111.479 346.646 111.857 347.444 112.541 348.056C113.225 348.656 114.089 348.956 115.133 348.956C115.721 348.956 116.261 348.854 116.753 348.65C117.245 348.434 117.671 348.122 118.031 347.714L118.751 348.542C118.331 349.046 117.803 349.43 117.167 349.694C116.543 349.958 115.853 350.09 115.097 350.09C114.125 350.09 113.261 349.886 112.505 349.478C111.761 349.058 111.179 348.482 110.759 347.75C110.339 347.018 110.129 346.19 110.129 345.266C110.129 344.342 110.327 343.514 110.723 342.782C111.131 342.05 111.683 341.48 112.379 341.072C113.087 340.664 113.879 340.46 114.755 340.46C115.631 340.46 116.417 340.664 117.113 341.072C117.809 341.48 118.355 342.05 118.751 342.782C119.147 343.502 119.345 344.33 119.345 345.266L119.327 345.662ZM114.755 341.558C113.843 341.558 113.075 341.852 112.451 342.44C111.839 343.016 111.491 343.772 111.407 344.708H118.121C118.037 343.772 117.683 343.016 117.059 342.44C116.447 341.852 115.679 341.558 114.755 341.558ZM122.174 340.532H123.452V344.726H129.41V340.532H130.688V350H129.41V345.824H123.452V350H122.174V340.532ZM138.299 343.88C139.487 343.892 140.393 344.156 141.017 344.672C141.641 345.188 141.953 345.932 141.953 346.904C141.953 347.912 141.617 348.686 140.945 349.226C140.273 349.766 139.313 350.03 138.065 350.018L134.321 350V340.532H135.599V343.844L138.299 343.88ZM143.537 340.532H144.815V350H143.537V340.532ZM137.993 349.046C138.869 349.058 139.529 348.884 139.973 348.524C140.429 348.152 140.657 347.612 140.657 346.904C140.657 346.208 140.435 345.692 139.991 345.356C139.547 345.02 138.881 344.846 137.993 344.834L135.599 344.798V349.01L137.993 349.046ZM153.165 340.532H154.443V344.726H160.401V340.532H161.679V350H160.401V345.824H154.443V350H153.165V340.532ZM168.569 340.46C169.805 340.46 170.753 340.772 171.413 341.396C172.073 342.008 172.403 342.92 172.403 344.132V350H171.179V348.524C170.891 349.016 170.465 349.4 169.901 349.676C169.349 349.952 168.689 350.09 167.921 350.09C166.865 350.09 166.025 349.838 165.401 349.334C164.777 348.83 164.465 348.164 164.465 347.336C164.465 346.532 164.753 345.884 165.329 345.392C165.917 344.9 166.847 344.654 168.119 344.654H171.125V344.078C171.125 343.262 170.897 342.644 170.441 342.224C169.985 341.792 169.319 341.576 168.443 341.576C167.843 341.576 167.267 341.678 166.715 341.882C166.163 342.074 165.689 342.344 165.293 342.692L164.717 341.738C165.197 341.33 165.773 341.018 166.445 340.802C167.117 340.574 167.825 340.46 168.569 340.46ZM168.119 349.082C168.839 349.082 169.457 348.92 169.973 348.596C170.489 348.26 170.873 347.78 171.125 347.156V345.608H168.155C166.535 345.608 165.725 346.172 165.725 347.3C165.725 347.852 165.935 348.29 166.355 348.614C166.775 348.926 167.363 349.082 168.119 349.082ZM180.516 340.532H181.794V344.726H187.752V340.532H189.03V350H187.752V345.824H181.794V350H180.516V340.532ZM195.921 340.46C197.157 340.46 198.105 340.772 198.765 341.396C199.425 342.008 199.755 342.92 199.755 344.132V350H198.531V348.524C198.243 349.016 197.817 349.4 197.253 349.676C196.701 349.952 196.041 350.09 195.273 350.09C194.217 350.09 193.377 349.838 192.753 349.334C192.129 348.83 191.817 348.164 191.817 347.336C191.817 346.532 192.105 345.884 192.681 345.392C193.269 344.9 194.199 344.654 195.471 344.654H198.477V344.078C198.477 343.262 198.249 342.644 197.793 342.224C197.337 341.792 196.671 341.576 195.795 341.576C195.195 341.576 194.619 341.678 194.067 341.882C193.515 342.074 193.041 342.344 192.645 342.692L192.069 341.738C192.549 341.33 193.125 341.018 193.797 340.802C194.469 340.574 195.177 340.46 195.921 340.46ZM195.471 349.082C196.191 349.082 196.809 348.92 197.325 348.596C197.841 348.26 198.225 347.78 198.477 347.156V345.608H195.507C193.887 345.608 193.077 346.172 193.077 347.3C193.077 347.852 193.287 348.29 193.707 348.614C194.127 348.926 194.715 349.082 195.471 349.082ZM216.225 340.532V350H203.157V340.532H204.435V348.884H209.079V340.532H210.357V348.884H214.947V340.532H216.225ZM219.874 340.532H221.152V348.056L227.47 340.532H228.604V350H227.326V342.476L221.026 350H219.874V340.532ZM245.023 340.532L240.289 351.134C239.905 352.022 239.461 352.652 238.957 353.024C238.453 353.396 237.847 353.582 237.139 353.582C236.683 353.582 236.257 353.51 235.861 353.366C235.465 353.222 235.123 353.006 234.835 352.718L235.429 351.764C235.909 352.244 236.485 352.484 237.157 352.484C237.589 352.484 237.955 352.364 238.255 352.124C238.567 351.884 238.855 351.476 239.119 350.9L239.533 349.982L235.303 340.532H236.635L240.199 348.578L243.763 340.532H245.023ZM250.711 350.09C249.775 350.09 248.935 349.886 248.191 349.478C247.459 349.07 246.883 348.5 246.463 347.768C246.043 347.024 245.833 346.19 245.833 345.266C245.833 344.342 246.043 343.514 246.463 342.782C246.883 342.05 247.459 341.48 248.191 341.072C248.935 340.664 249.775 340.46 250.711 340.46C251.527 340.46 252.253 340.622 252.889 340.946C253.537 341.258 254.047 341.72 254.419 342.332L253.465 342.98C253.153 342.512 252.757 342.164 252.277 341.936C251.797 341.696 251.275 341.576 250.711 341.576C250.027 341.576 249.409 341.732 248.857 342.044C248.317 342.344 247.891 342.776 247.579 343.34C247.279 343.904 247.129 344.546 247.129 345.266C247.129 345.998 247.279 346.646 247.579 347.21C247.891 347.762 248.317 348.194 248.857 348.506C249.409 348.806 250.027 348.956 250.711 348.956C251.275 348.956 251.797 348.842 252.277 348.614C252.757 348.386 253.153 348.038 253.465 347.57L254.419 348.218C254.047 348.83 253.537 349.298 252.889 349.622C252.241 349.934 251.515 350.09 250.711 350.09ZM264.317 340.532V350H263.039V341.666H258.503L258.377 344.006C258.281 345.974 258.053 347.486 257.693 348.542C257.333 349.598 256.691 350.126 255.767 350.126C255.515 350.126 255.209 350.078 254.849 349.982L254.939 348.884C255.155 348.932 255.305 348.956 255.389 348.956C255.881 348.956 256.253 348.728 256.505 348.272C256.757 347.816 256.925 347.252 257.009 346.58C257.093 345.908 257.165 345.02 257.225 343.916L257.387 340.532H264.317ZM275.996 340.532L271.262 351.134C270.878 352.022 270.434 352.652 269.93 353.024C269.426 353.396 268.82 353.582 268.112 353.582C267.656 353.582 267.23 353.51 266.834 353.366C266.438 353.222 266.096 353.006 265.808 352.718L266.402 351.764C266.882 352.244 267.458 352.484 268.13 352.484C268.562 352.484 268.928 352.364 269.228 352.124C269.54 351.884 269.828 351.476 270.092 350.9L270.506 349.982L266.276 340.532H267.608L271.172 348.578L274.736 340.532H275.996ZM284.683 341.666H279.265V350H277.987V340.532H284.683V341.666ZM286.53 340.532H287.808V348.056L294.126 340.532H295.26V350H293.982V342.476L287.682 350H286.53V340.532ZM44.1454 366.564H48.8614V367.68H44.1454V366.564ZM61.0754 367.068C61.7474 367.224 62.2634 367.494 62.6234 367.878C62.9954 368.262 63.1814 368.73 63.1814 369.282C63.1814 369.834 62.9894 370.326 62.6054 370.758C62.2334 371.19 61.7234 371.526 61.0754 371.766C60.4274 371.994 59.7134 372.108 58.9334 372.108C58.2494 372.108 57.5774 372.012 56.9174 371.82C56.2574 371.616 55.6814 371.322 55.1894 370.938L55.6214 369.984C56.0534 370.308 56.5574 370.56 57.1334 370.74C57.7094 370.92 58.2914 371.01 58.8794 371.01C59.7554 371.01 60.4694 370.848 61.0214 370.524C61.5854 370.188 61.8674 369.738 61.8674 369.174C61.8674 368.67 61.6394 368.28 61.1834 368.004C60.7274 367.716 60.1034 367.572 59.3114 367.572H57.6914V366.636H59.2394C59.9474 366.636 60.5174 366.504 60.9494 366.24C61.3814 365.964 61.5974 365.598 61.5974 365.142C61.5974 364.638 61.3514 364.242 60.8594 363.954C60.3794 363.666 59.7494 363.522 58.9694 363.522C57.9494 363.522 56.9414 363.78 55.9454 364.296L55.5854 363.306C56.7134 362.718 57.8834 362.424 59.0954 362.424C59.8154 362.424 60.4634 362.532 61.0394 362.748C61.6274 362.952 62.0834 363.246 62.4074 363.63C62.7434 364.014 62.9114 364.458 62.9114 364.962C62.9114 365.442 62.7434 365.868 62.4074 366.24C62.0834 366.612 61.6394 366.888 61.0754 367.068ZM69.3406 362.46C70.5766 362.46 71.5246 362.772 72.1846 363.396C72.8446 364.008 73.1746 364.92 73.1746 366.132V372H71.9506V370.524C71.6626 371.016 71.2366 371.4 70.6726 371.676C70.1206 371.952 69.4606 372.09 68.6926 372.09C67.6366 372.09 66.7966 371.838 66.1726 371.334C65.5486 370.83 65.2366 370.164 65.2366 369.336C65.2366 368.532 65.5246 367.884 66.1006 367.392C66.6886 366.9 67.6186 366.654 68.8906 366.654H71.8966V366.078C71.8966 365.262 71.6686 364.644 71.2126 364.224C70.7566 363.792 70.0906 363.576 69.2146 363.576C68.6146 363.576 68.0386 363.678 67.4866 363.882C66.9346 364.074 66.4606 364.344 66.0646 364.692L65.4886 363.738C65.9686 363.33 66.5446 363.018 67.2166 362.802C67.8886 362.574 68.5966 362.46 69.3406 362.46ZM68.8906 371.082C69.6106 371.082 70.2286 370.92 70.7446 370.596C71.2606 370.26 71.6446 369.78 71.8966 369.156V367.608H68.9266C67.3066 367.608 66.4966 368.172 66.4966 369.3C66.4966 369.852 66.7066 370.29 67.1266 370.614C67.5466 370.926 68.1346 371.082 68.8906 371.082ZM84.3168 362.532V372H83.0388V363.666H78.5028L78.3768 366.006C78.2808 367.974 78.0528 369.486 77.6928 370.542C77.3328 371.598 76.6908 372.126 75.7668 372.126C75.5148 372.126 75.2088 372.078 74.8488 371.982L74.9388 370.884C75.1548 370.932 75.3048 370.956 75.3888 370.956C75.8808 370.956 76.2528 370.728 76.5048 370.272C76.7568 369.816 76.9248 369.252 77.0088 368.58C77.0928 367.908 77.1648 367.02 77.2248 365.916L77.3868 362.532H84.3168ZM91.8558 372.09C90.9438 372.09 90.1218 371.886 89.3898 371.478C88.6578 371.058 88.0818 370.482 87.6618 369.75C87.2418 369.018 87.0318 368.19 87.0318 367.266C87.0318 366.342 87.2418 365.514 87.6618 364.782C88.0818 364.05 88.6578 363.48 89.3898 363.072C90.1218 362.664 90.9438 362.46 91.8558 362.46C92.7678 362.46 93.5898 362.664 94.3218 363.072C95.0538 363.48 95.6238 364.05 96.0318 364.782C96.4518 365.514 96.6618 366.342 96.6618 367.266C96.6618 368.19 96.4518 369.018 96.0318 369.75C95.6238 370.482 95.0538 371.058 94.3218 371.478C93.5898 371.886 92.7678 372.09 91.8558 372.09ZM91.8558 370.956C92.5278 370.956 93.1278 370.806 93.6558 370.506C94.1958 370.194 94.6158 369.756 94.9158 369.192C95.2158 368.628 95.3658 367.986 95.3658 367.266C95.3658 366.546 95.2158 365.904 94.9158 365.34C94.6158 364.776 94.1958 364.344 93.6558 364.044C93.1278 363.732 92.5278 363.576 91.8558 363.576C91.1838 363.576 90.5778 363.732 90.0378 364.044C89.5098 364.344 89.0898 364.776 88.7778 365.34C88.4778 365.904 88.3278 366.546 88.3278 367.266C88.3278 367.986 88.4778 368.628 88.7778 369.192C89.0898 369.756 89.5098 370.194 90.0378 370.506C90.5778 370.806 91.1838 370.956 91.8558 370.956ZM106.089 363.666H100.671V372H99.3932V362.532H106.089V363.666ZM112.647 362.532H113.925V366.726H119.883V362.532H121.161V372H119.883V367.824H113.925V372H112.647V362.532ZM128.052 362.46C129.288 362.46 130.236 362.772 130.896 363.396C131.556 364.008 131.886 364.92 131.886 366.132V372H130.662V370.524C130.374 371.016 129.948 371.4 129.384 371.676C128.832 371.952 128.172 372.09 127.404 372.09C126.348 372.09 125.508 371.838 124.884 371.334C124.26 370.83 123.948 370.164 123.948 369.336C123.948 368.532 124.236 367.884 124.812 367.392C125.4 366.9 126.33 366.654 127.602 366.654H130.608V366.078C130.608 365.262 130.38 364.644 129.924 364.224C129.468 363.792 128.802 363.576 127.926 363.576C127.326 363.576 126.75 363.678 126.198 363.882C125.646 364.074 125.172 364.344 124.776 364.692L124.2 363.738C124.68 363.33 125.256 363.018 125.928 362.802C126.6 362.574 127.308 362.46 128.052 362.46ZM127.602 371.082C128.322 371.082 128.94 370.92 129.456 370.596C129.972 370.26 130.356 369.78 130.608 369.156V367.608H127.638C126.018 367.608 125.208 368.172 125.208 369.3C125.208 369.852 125.418 370.29 125.838 370.614C126.258 370.926 126.846 371.082 127.602 371.082ZM148.356 362.532V372H135.288V362.532H136.566V370.884H141.21V362.532H142.488V370.884H147.078V362.532H148.356ZM160.285 367.662H152.365C152.437 368.646 152.815 369.444 153.499 370.056C154.183 370.656 155.047 370.956 156.091 370.956C156.679 370.956 157.219 370.854 157.711 370.65C158.203 370.434 158.629 370.122 158.989 369.714L159.709 370.542C159.289 371.046 158.761 371.43 158.125 371.694C157.501 371.958 156.811 372.09 156.055 372.09C155.083 372.09 154.219 371.886 153.463 371.478C152.719 371.058 152.137 370.482 151.717 369.75C151.297 369.018 151.087 368.19 151.087 367.266C151.087 366.342 151.285 365.514 151.681 364.782C152.089 364.05 152.641 363.48 153.337 363.072C154.045 362.664 154.837 362.46 155.713 362.46C156.589 362.46 157.375 362.664 158.071 363.072C158.767 363.48 159.313 364.05 159.709 364.782C160.105 365.502 160.303 366.33 160.303 367.266L160.285 367.662ZM155.713 363.558C154.801 363.558 154.033 363.852 153.409 364.44C152.797 365.016 152.449 365.772 152.365 366.708H159.079C158.995 365.772 158.641 365.016 158.017 364.44C157.405 363.852 156.637 363.558 155.713 363.558ZM169.827 363.666H164.409V372H163.131V362.532H169.827V363.666ZM175.141 372.09C174.229 372.09 173.407 371.886 172.675 371.478C171.943 371.058 171.367 370.482 170.947 369.75C170.527 369.018 170.317 368.19 170.317 367.266C170.317 366.342 170.527 365.514 170.947 364.782C171.367 364.05 171.943 363.48 172.675 363.072C173.407 362.664 174.229 362.46 175.141 362.46C176.053 362.46 176.875 362.664 177.607 363.072C178.339 363.48 178.909 364.05 179.317 364.782C179.737 365.514 179.947 366.342 179.947 367.266C179.947 368.19 179.737 369.018 179.317 369.75C178.909 370.482 178.339 371.058 177.607 371.478C176.875 371.886 176.053 372.09 175.141 372.09ZM175.141 370.956C175.813 370.956 176.413 370.806 176.941 370.506C177.481 370.194 177.901 369.756 178.201 369.192C178.501 368.628 178.651 367.986 178.651 367.266C178.651 366.546 178.501 365.904 178.201 365.34C177.901 364.776 177.481 364.344 176.941 364.044C176.413 363.732 175.813 363.576 175.141 363.576C174.469 363.576 173.863 363.732 173.323 364.044C172.795 364.344 172.375 364.776 172.063 365.34C171.763 365.904 171.613 366.546 171.613 367.266C171.613 367.986 171.763 368.628 172.063 369.192C172.375 369.756 172.795 370.194 173.323 370.506C173.863 370.806 174.469 370.956 175.141 370.956ZM195.435 362.532L190.701 373.134C190.317 374.022 189.873 374.652 189.369 375.024C188.865 375.396 188.259 375.582 187.551 375.582C187.095 375.582 186.669 375.51 186.273 375.366C185.877 375.222 185.535 375.006 185.247 374.718L185.841 373.764C186.321 374.244 186.897 374.484 187.569 374.484C188.001 374.484 188.367 374.364 188.667 374.124C188.979 373.884 189.267 373.476 189.531 372.9L189.945 371.982L185.715 362.532H187.047L190.611 370.578L194.175 362.532H195.435ZM201.123 372.09C200.187 372.09 199.347 371.886 198.603 371.478C197.871 371.07 197.295 370.5 196.875 369.768C196.455 369.024 196.245 368.19 196.245 367.266C196.245 366.342 196.455 365.514 196.875 364.782C197.295 364.05 197.871 363.48 198.603 363.072C199.347 362.664 200.187 362.46 201.123 362.46C201.939 362.46 202.665 362.622 203.301 362.946C203.949 363.258 204.459 363.72 204.831 364.332L203.877 364.98C203.565 364.512 203.169 364.164 202.689 363.936C202.209 363.696 201.687 363.576 201.123 363.576C200.439 363.576 199.821 363.732 199.269 364.044C198.729 364.344 198.303 364.776 197.991 365.34C197.691 365.904 197.541 366.546 197.541 367.266C197.541 367.998 197.691 368.646 197.991 369.21C198.303 369.762 198.729 370.194 199.269 370.506C199.821 370.806 200.439 370.956 201.123 370.956C201.687 370.956 202.209 370.842 202.689 370.614C203.169 370.386 203.565 370.038 203.877 369.57L204.831 370.218C204.459 370.83 203.949 371.298 203.301 371.622C202.653 371.934 201.927 372.09 201.123 372.09ZM215.801 362.532V372H214.523V363.666H208.583V372H207.305V362.532H215.801ZM227.714 367.662H219.794C219.866 368.646 220.244 369.444 220.928 370.056C221.612 370.656 222.476 370.956 223.52 370.956C224.108 370.956 224.648 370.854 225.14 370.65C225.632 370.434 226.058 370.122 226.418 369.714L227.138 370.542C226.718 371.046 226.19 371.43 225.554 371.694C224.93 371.958 224.24 372.09 223.484 372.09C222.512 372.09 221.648 371.886 220.892 371.478C220.148 371.058 219.566 370.482 219.146 369.75C218.726 369.018 218.516 368.19 218.516 367.266C218.516 366.342 218.714 365.514 219.11 364.782C219.518 364.05 220.07 363.48 220.766 363.072C221.474 362.664 222.266 362.46 223.142 362.46C224.018 362.46 224.804 362.664 225.5 363.072C226.196 363.48 226.742 364.05 227.138 364.782C227.534 365.502 227.732 366.33 227.732 367.266L227.714 367.662ZM223.142 363.558C222.23 363.558 221.462 363.852 220.838 364.44C220.226 365.016 219.878 365.772 219.794 366.708H226.508C226.424 365.772 226.07 365.016 225.446 364.44C224.834 363.852 224.066 363.558 223.142 363.558ZM236.219 372L233.213 368.04L230.189 372H228.749L232.493 367.14L228.929 362.532H230.369L233.213 366.24L236.057 362.532H237.461L233.897 367.14L237.677 372H236.219ZM242.854 362.46C244.09 362.46 245.038 362.772 245.698 363.396C246.358 364.008 246.688 364.92 246.688 366.132V372H245.464V370.524C245.176 371.016 244.75 371.4 244.186 371.676C243.634 371.952 242.974 372.09 242.206 372.09C241.15 372.09 240.31 371.838 239.686 371.334C239.062 370.83 238.75 370.164 238.75 369.336C238.75 368.532 239.038 367.884 239.614 367.392C240.202 366.9 241.132 366.654 242.404 366.654H245.41V366.078C245.41 365.262 245.182 364.644 244.726 364.224C244.27 363.792 243.604 363.576 242.728 363.576C242.128 363.576 241.552 363.678 241 363.882C240.448 364.074 239.974 364.344 239.578 364.692L239.002 363.738C239.482 363.33 240.058 363.018 240.73 362.802C241.402 362.574 242.11 362.46 242.854 362.46ZM242.404 371.082C243.124 371.082 243.742 370.92 244.258 370.596C244.774 370.26 245.158 369.78 245.41 369.156V367.608H242.44C240.82 367.608 240.01 368.172 240.01 369.3C240.01 369.852 240.22 370.29 240.64 370.614C241.06 370.926 241.648 371.082 242.404 371.082ZM260.831 367.104C262.115 367.404 262.757 368.178 262.757 369.426C262.757 370.254 262.451 370.89 261.839 371.334C261.227 371.778 260.315 372 259.103 372H254.801V362.532H258.977C260.057 362.532 260.903 362.742 261.515 363.162C262.127 363.582 262.433 364.182 262.433 364.962C262.433 365.478 262.289 365.922 262.001 366.294C261.725 366.654 261.335 366.924 260.831 367.104ZM256.043 366.744H258.887C259.619 366.744 260.177 366.606 260.561 366.33C260.957 366.054 261.155 365.652 261.155 365.124C261.155 364.596 260.957 364.2 260.561 363.936C260.177 363.672 259.619 363.54 258.887 363.54H256.043V366.744ZM259.049 370.992C259.865 370.992 260.477 370.86 260.885 370.596C261.293 370.332 261.497 369.918 261.497 369.354C261.497 368.79 261.311 368.376 260.939 368.112C260.567 367.836 259.979 367.698 259.175 367.698H256.043V370.992H259.049ZM50.196 384.532L45.462 395.134C45.078 396.022 44.634 396.652 44.13 397.024C43.626 397.396 43.02 397.582 42.312 397.582C41.856 397.582 41.43 397.51 41.034 397.366C40.638 397.222 40.296 397.006 40.008 396.718L40.602 395.764C41.082 396.244 41.658 396.484 42.33 396.484C42.762 396.484 43.128 396.364 43.428 396.124C43.74 395.884 44.028 395.476 44.292 394.9L44.706 393.982L40.476 384.532H41.808L45.372 392.578L48.936 384.532H50.196ZM58.2171 389.104C59.5011 389.404 60.1431 390.178 60.1431 391.426C60.1431 392.254 59.8371 392.89 59.2251 393.334C58.6131 393.778 57.7011 394 56.4891 394H52.1871V384.532H56.3631C57.4431 384.532 58.2891 384.742 58.9011 385.162C59.5131 385.582 59.8191 386.182 59.8191 386.962C59.8191 387.478 59.6751 387.922 59.3871 388.294C59.1111 388.654 58.7211 388.924 58.2171 389.104ZM53.4291 388.744H56.2731C57.0051 388.744 57.5631 388.606 57.9471 388.33C58.3431 388.054 58.5411 387.652 58.5411 387.124C58.5411 386.596 58.3431 386.2 57.9471 385.936C57.5631 385.672 57.0051 385.54 56.2731 385.54H53.4291V388.744ZM56.4351 392.992C57.2511 392.992 57.8631 392.86 58.2711 392.596C58.6791 392.332 58.8831 391.918 58.8831 391.354C58.8831 390.79 58.6971 390.376 58.3251 390.112C57.9531 389.836 57.3651 389.698 56.5611 389.698H53.4291V392.992H56.4351ZM71.4183 389.662H63.4983C63.5703 390.646 63.9483 391.444 64.6323 392.056C65.3163 392.656 66.1803 392.956 67.2243 392.956C67.8123 392.956 68.3523 392.854 68.8443 392.65C69.3363 392.434 69.7623 392.122 70.1223 391.714L70.8423 392.542C70.4223 393.046 69.8943 393.43 69.2583 393.694C68.6343 393.958 67.9443 394.09 67.1883 394.09C66.2163 394.09 65.3523 393.886 64.5963 393.478C63.8523 393.058 63.2703 392.482 62.8503 391.75C62.4303 391.018 62.2203 390.19 62.2203 389.266C62.2203 388.342 62.4183 387.514 62.8143 386.782C63.2223 386.05 63.7743 385.48 64.4703 385.072C65.1783 384.664 65.9703 384.46 66.8463 384.46C67.7223 384.46 68.5083 384.664 69.2043 385.072C69.9003 385.48 70.4463 386.05 70.8423 386.782C71.2383 387.502 71.4363 388.33 71.4363 389.266L71.4183 389.662ZM66.8463 385.558C65.9343 385.558 65.1663 385.852 64.5423 386.44C63.9303 387.016 63.5823 387.772 63.4983 388.708H70.2123C70.1283 387.772 69.7743 387.016 69.1503 386.44C68.5383 385.852 67.7703 385.558 66.8463 385.558ZM81.8119 384.532V394H80.5339V385.666H75.9979L75.8719 388.006C75.7759 389.974 75.5479 391.486 75.1879 392.542C74.8279 393.598 74.1859 394.126 73.2619 394.126C73.0099 394.126 72.7039 394.078 72.3439 393.982L72.4339 392.884C72.6499 392.932 72.7999 392.956 72.8839 392.956C73.3759 392.956 73.7479 392.728 73.9999 392.272C74.2519 391.816 74.4199 391.252 74.5039 390.58C74.5879 389.908 74.6599 389.02 74.7199 387.916L74.8819 384.532H81.8119ZM85.445 384.532H86.723V392.056L93.041 384.532H94.175V394H92.897V386.476L86.597 394H85.445V384.532ZM104.984 384.532V394H103.706V390.058C102.614 390.538 101.54 390.778 100.484 390.778C99.3435 390.778 98.4555 390.52 97.8195 390.004C97.1835 389.476 96.8655 388.69 96.8655 387.646V384.532H98.1435V387.574C98.1435 388.282 98.3715 388.822 98.8275 389.194C99.2835 389.554 99.9135 389.734 100.718 389.734C101.606 389.734 102.602 389.5 103.706 389.032V384.532H104.984ZM116.893 389.662H108.973C109.045 390.646 109.423 391.444 110.107 392.056C110.791 392.656 111.655 392.956 112.699 392.956C113.287 392.956 113.827 392.854 114.319 392.65C114.811 392.434 115.237 392.122 115.597 391.714L116.317 392.542C115.897 393.046 115.369 393.43 114.733 393.694C114.109 393.958 113.419 394.09 112.663 394.09C111.691 394.09 110.827 393.886 110.071 393.478C109.327 393.058 108.745 392.482 108.325 391.75C107.905 391.018 107.695 390.19 107.695 389.266C107.695 388.342 107.893 387.514 108.289 386.782C108.697 386.05 109.249 385.48 109.945 385.072C110.653 384.664 111.445 384.46 112.321 384.46C113.197 384.46 113.983 384.664 114.679 385.072C115.375 385.48 115.921 386.05 116.317 386.782C116.713 387.502 116.911 388.33 116.911 389.266L116.893 389.662ZM112.321 385.558C111.409 385.558 110.641 385.852 110.017 386.44C109.405 387.016 109.057 387.772 108.973 388.708H115.687C115.603 387.772 115.249 387.016 114.625 386.44C114.013 385.852 113.245 385.558 112.321 385.558ZM119.74 384.532H121.018V388.726H126.976V384.532H128.254V394H126.976V389.824H121.018V394H119.74V384.532ZM131.886 384.532H133.164V392.056L139.482 384.532H140.616V394H139.338V386.476L133.038 394H131.886V384.532ZM144.279 384.532H145.557V392.056L151.875 384.532H153.009V394H151.731V386.476L145.431 394H144.279V384.532ZM164.82 389.788H162.66V394H161.382V384.532H162.66V388.69H164.838L168.168 384.532H169.554L165.828 389.122L169.824 394H168.312L164.82 389.788ZM175.413 394.09C174.501 394.09 173.679 393.886 172.947 393.478C172.215 393.058 171.639 392.482 171.219 391.75C170.799 391.018 170.589 390.19 170.589 389.266C170.589 388.342 170.799 387.514 171.219 386.782C171.639 386.05 172.215 385.48 172.947 385.072C173.679 384.664 174.501 384.46 175.413 384.46C176.325 384.46 177.147 384.664 177.879 385.072C178.611 385.48 179.181 386.05 179.589 386.782C180.009 387.514 180.219 388.342 180.219 389.266C180.219 390.19 180.009 391.018 179.589 391.75C179.181 392.482 178.611 393.058 177.879 393.478C177.147 393.886 176.325 394.09 175.413 394.09ZM175.413 392.956C176.085 392.956 176.685 392.806 177.213 392.506C177.753 392.194 178.173 391.756 178.473 391.192C178.773 390.628 178.923 389.986 178.923 389.266C178.923 388.546 178.773 387.904 178.473 387.34C178.173 386.776 177.753 386.344 177.213 386.044C176.685 385.732 176.085 385.576 175.413 385.576C174.741 385.576 174.135 385.732 173.595 386.044C173.067 386.344 172.647 386.776 172.335 387.34C172.035 387.904 171.885 388.546 171.885 389.266C171.885 389.986 172.035 390.628 172.335 391.192C172.647 391.756 173.067 392.194 173.595 392.506C174.135 392.806 174.741 392.956 175.413 392.956ZM190.638 384.532V394H189.36V385.666H184.824L184.698 388.006C184.602 389.974 184.374 391.486 184.014 392.542C183.654 393.598 183.012 394.126 182.088 394.126C181.836 394.126 181.53 394.078 181.17 393.982L181.26 392.884C181.476 392.932 181.626 392.956 181.71 392.956C182.202 392.956 182.574 392.728 182.826 392.272C183.078 391.816 183.246 391.252 183.33 390.58C183.414 389.908 183.486 389.02 183.546 387.916L183.708 384.532H190.638ZM194.271 384.532H195.549V392.056L201.867 384.532H203.001V394H201.723V386.476L195.423 394H194.271V384.532ZM213.81 384.532V394H212.532V390.058C211.44 390.538 210.366 390.778 209.31 390.778C208.17 390.778 207.282 390.52 206.646 390.004C206.01 389.476 205.692 388.69 205.692 387.646V384.532H206.97V387.574C206.97 388.282 207.198 388.822 207.654 389.194C208.11 389.554 208.74 389.734 209.544 389.734C210.432 389.734 211.428 389.5 212.532 389.032V384.532H213.81ZM225.719 389.662H217.799C217.871 390.646 218.249 391.444 218.933 392.056C219.617 392.656 220.481 392.956 221.525 392.956C222.113 392.956 222.653 392.854 223.145 392.65C223.637 392.434 224.063 392.122 224.423 391.714L225.143 392.542C224.723 393.046 224.195 393.43 223.559 393.694C222.935 393.958 222.245 394.09 221.489 394.09C220.517 394.09 219.653 393.886 218.897 393.478C218.153 393.058 217.571 392.482 217.151 391.75C216.731 391.018 216.521 390.19 216.521 389.266C216.521 388.342 216.719 387.514 217.115 386.782C217.523 386.05 218.075 385.48 218.771 385.072C219.479 384.664 220.271 384.46 221.147 384.46C222.023 384.46 222.809 384.664 223.505 385.072C224.201 385.48 224.747 386.05 225.143 386.782C225.539 387.502 225.737 388.33 225.737 389.266L225.719 389.662ZM221.147 385.558C220.235 385.558 219.467 385.852 218.843 386.44C218.231 387.016 217.883 387.772 217.799 388.708H224.513C224.429 387.772 224.075 387.016 223.451 386.44C222.839 385.852 222.071 385.558 221.147 385.558ZM232.526 394.09C231.59 394.09 230.75 393.886 230.006 393.478C229.274 393.07 228.698 392.5 228.278 391.768C227.858 391.024 227.648 390.19 227.648 389.266C227.648 388.342 227.858 387.514 228.278 386.782C228.698 386.05 229.274 385.48 230.006 385.072C230.75 384.664 231.59 384.46 232.526 384.46C233.342 384.46 234.068 384.622 234.704 384.946C235.352 385.258 235.862 385.72 236.234 386.332L235.28 386.98C234.968 386.512 234.572 386.164 234.092 385.936C233.612 385.696 233.09 385.576 232.526 385.576C231.842 385.576 231.224 385.732 230.672 386.044C230.132 386.344 229.706 386.776 229.394 387.34C229.094 387.904 228.944 388.546 228.944 389.266C228.944 389.998 229.094 390.646 229.394 391.21C229.706 391.762 230.132 392.194 230.672 392.506C231.224 392.806 231.842 392.956 232.526 392.956C233.09 392.956 233.612 392.842 234.092 392.614C234.572 392.386 234.968 392.038 235.28 391.57L236.234 392.218C235.862 392.83 235.352 393.298 234.704 393.622C234.056 393.934 233.33 394.09 232.526 394.09ZM245.193 385.666H241.611V394H240.333V385.666H236.751V384.532H245.193V385.666ZM253.071 389.104C254.355 389.404 254.997 390.178 254.997 391.426C254.997 392.254 254.691 392.89 254.079 393.334C253.467 393.778 252.555 394 251.343 394H247.041V384.532H251.217C252.297 384.532 253.143 384.742 253.755 385.162C254.367 385.582 254.673 386.182 254.673 386.962C254.673 387.478 254.529 387.922 254.241 388.294C253.965 388.654 253.575 388.924 253.071 389.104ZM248.283 388.744H251.127C251.859 388.744 252.417 388.606 252.801 388.33C253.197 388.054 253.395 387.652 253.395 387.124C253.395 386.596 253.197 386.2 252.801 385.936C252.417 385.672 251.859 385.54 251.127 385.54H248.283V388.744ZM251.289 392.992C252.105 392.992 252.717 392.86 253.125 392.596C253.533 392.332 253.737 391.918 253.737 391.354C253.737 390.79 253.551 390.376 253.179 390.112C252.807 389.836 252.219 389.698 251.415 389.698H248.283V392.992H251.289ZM261.25 384.46C262.486 384.46 263.434 384.772 264.094 385.396C264.754 386.008 265.084 386.92 265.084 388.132V394H263.86V392.524C263.572 393.016 263.146 393.4 262.582 393.676C262.03 393.952 261.37 394.09 260.602 394.09C259.546 394.09 258.706 393.838 258.082 393.334C257.458 392.83 257.146 392.164 257.146 391.336C257.146 390.532 257.434 389.884 258.01 389.392C258.598 388.9 259.528 388.654 260.8 388.654H263.806V388.078C263.806 387.262 263.578 386.644 263.122 386.224C262.666 385.792 262 385.576 261.124 385.576C260.524 385.576 259.948 385.678 259.396 385.882C258.844 386.074 258.37 386.344 257.974 386.692L257.398 385.738C257.878 385.33 258.454 385.018 259.126 384.802C259.798 384.574 260.506 384.46 261.25 384.46ZM260.8 393.082C261.52 393.082 262.138 392.92 262.654 392.596C263.17 392.26 263.554 391.78 263.806 391.156V389.608H260.836C259.216 389.608 258.406 390.172 258.406 391.3C258.406 391.852 258.616 392.29 259.036 392.614C259.456 392.926 260.044 393.082 260.8 393.082ZM126.079 411.068C126.751 411.224 127.267 411.494 127.627 411.878C127.999 412.262 128.185 412.73 128.185 413.282C128.185 413.834 127.993 414.326 127.609 414.758C127.237 415.19 126.727 415.526 126.079 415.766C125.431 415.994 124.717 416.108 123.937 416.108C123.253 416.108 122.581 416.012 121.921 415.82C121.261 415.616 120.685 415.322 120.193 414.938L120.625 413.984C121.057 414.308 121.561 414.56 122.137 414.74C122.713 414.92 123.295 415.01 123.883 415.01C124.759 415.01 125.473 414.848 126.025 414.524C126.589 414.188 126.871 413.738 126.871 413.174C126.871 412.67 126.643 412.28 126.187 412.004C125.731 411.716 125.107 411.572 124.315 411.572H122.695V410.636H124.243C124.951 410.636 125.521 410.504 125.953 410.24C126.385 409.964 126.601 409.598 126.601 409.142C126.601 408.638 126.355 408.242 125.863 407.954C125.383 407.666 124.753 407.522 123.973 407.522C122.953 407.522 121.945 407.78 120.949 408.296L120.589 407.306C121.717 406.718 122.887 406.424 124.099 406.424C124.819 406.424 125.467 406.532 126.043 406.748C126.631 406.952 127.087 407.246 127.411 407.63C127.747 408.014 127.915 408.458 127.915 408.962C127.915 409.442 127.747 409.868 127.411 410.24C127.087 410.612 126.643 410.888 126.079 411.068ZM134.345 406.46C135.581 406.46 136.529 406.772 137.189 407.396C137.849 408.008 138.179 408.92 138.179 410.132V416H136.955V414.524C136.667 415.016 136.241 415.4 135.677 415.676C135.125 415.952 134.465 416.09 133.697 416.09C132.641 416.09 131.801 415.838 131.177 415.334C130.553 414.83 130.241 414.164 130.241 413.336C130.241 412.532 130.529 411.884 131.105 411.392C131.693 410.9 132.623 410.654 133.895 410.654H136.901V410.078C136.901 409.262 136.673 408.644 136.217 408.224C135.761 407.792 135.095 407.576 134.219 407.576C133.619 407.576 133.043 407.678 132.491 407.882C131.939 408.074 131.465 408.344 131.069 408.692L130.493 407.738C130.973 407.33 131.549 407.018 132.221 406.802C132.893 406.574 133.601 406.46 134.345 406.46ZM133.895 415.082C134.615 415.082 135.233 414.92 135.749 414.596C136.265 414.26 136.649 413.78 136.901 413.156V411.608H133.931C132.311 411.608 131.501 412.172 131.501 413.3C131.501 413.852 131.711 414.29 132.131 414.614C132.551 414.926 133.139 415.082 133.895 415.082ZM148.853 406.532V416H147.683V412.868H144.713H144.353L142.157 416H140.771L143.129 412.688C142.397 412.484 141.833 412.136 141.437 411.644C141.041 411.152 140.843 410.528 140.843 409.772C140.843 408.716 141.203 407.912 141.923 407.36C142.643 406.808 143.627 406.532 144.875 406.532H148.853ZM142.139 409.808C142.139 411.212 143.033 411.914 144.821 411.914H147.683V407.666H144.911C143.063 407.666 142.139 408.38 142.139 409.808ZM158.527 411.104C159.811 411.404 160.453 412.178 160.453 413.426C160.453 414.254 160.147 414.89 159.535 415.334C158.923 415.778 158.011 416 156.799 416H152.497V406.532H156.673C157.753 406.532 158.599 406.742 159.211 407.162C159.823 407.582 160.129 408.182 160.129 408.962C160.129 409.478 159.985 409.922 159.697 410.294C159.421 410.654 159.031 410.924 158.527 411.104ZM153.739 410.744H156.583C157.315 410.744 157.873 410.606 158.257 410.33C158.653 410.054 158.851 409.652 158.851 409.124C158.851 408.596 158.653 408.2 158.257 407.936C157.873 407.672 157.315 407.54 156.583 407.54H153.739V410.744ZM156.745 414.992C157.561 414.992 158.173 414.86 158.581 414.596C158.989 414.332 159.193 413.918 159.193 413.354C159.193 412.79 159.007 412.376 158.635 412.112C158.263 411.836 157.675 411.698 156.871 411.698H153.739V414.992H156.745ZM167.354 416.09C166.442 416.09 165.62 415.886 164.888 415.478C164.156 415.058 163.58 414.482 163.16 413.75C162.74 413.018 162.53 412.19 162.53 411.266C162.53 410.342 162.74 409.514 163.16 408.782C163.58 408.05 164.156 407.48 164.888 407.072C165.62 406.664 166.442 406.46 167.354 406.46C168.266 406.46 169.088 406.664 169.82 407.072C170.552 407.48 171.122 408.05 171.53 408.782C171.95 409.514 172.16 410.342 172.16 411.266C172.16 412.19 171.95 413.018 171.53 413.75C171.122 414.482 170.552 415.058 169.82 415.478C169.088 415.886 168.266 416.09 167.354 416.09ZM167.354 414.956C168.026 414.956 168.626 414.806 169.154 414.506C169.694 414.194 170.114 413.756 170.414 413.192C170.714 412.628 170.864 411.986 170.864 411.266C170.864 410.546 170.714 409.904 170.414 409.34C170.114 408.776 169.694 408.344 169.154 408.044C168.626 407.732 168.026 407.576 167.354 407.576C166.682 407.576 166.076 407.732 165.536 408.044C165.008 408.344 164.588 408.776 164.276 409.34C163.976 409.904 163.826 410.546 163.826 411.266C163.826 411.986 163.976 412.628 164.276 413.192C164.588 413.756 165.008 414.194 165.536 414.506C166.076 414.806 166.682 414.956 167.354 414.956ZM178.329 411.788H176.169V416H174.891V406.532H176.169V410.69H178.347L181.677 406.532H183.063L179.337 411.122L183.333 416H181.821L178.329 411.788ZM185.44 416.09C185.176 416.09 184.948 415.994 184.756 415.802C184.576 415.61 184.486 415.376 184.486 415.1C184.486 414.824 184.576 414.596 184.756 414.416C184.948 414.224 185.176 414.128 185.44 414.128C185.704 414.128 185.932 414.224 186.124 414.416C186.316 414.596 186.412 414.824 186.412 415.1C186.412 415.376 186.316 415.61 186.124 415.802C185.932 415.994 185.704 416.09 185.44 416.09Z" fill="white"/>
<path d="M202.012 202.988C191.058 192.033 176.493 186 161 186C145.508 186 130.943 192.033 119.988 202.988C109.033 213.942 103 228.507 103 244C103 259.493 109.033 274.058 119.988 285.012C130.943 295.967 145.508 302 161 302C176.493 302 191.058 295.967 202.012 285.012C212.967 274.058 219 259.493 219 244C219 228.507 212.967 213.942 202.012 202.988ZM164.64 269.239H164.398V276.761C164.398 278.638 162.877 280.16 161 280.16C159.123 280.16 157.602 278.638 157.602 276.761V269.239H150.08C148.203 269.239 146.681 267.717 146.681 265.841C146.681 263.964 148.203 262.442 150.08 262.442H164.641C168.788 262.442 172.162 259.068 172.162 254.92C172.162 250.773 168.788 247.398 164.64 247.398H157.36C149.465 247.398 143.041 240.975 143.041 233.08C143.041 225.184 149.465 218.761 157.36 218.761H157.602V211.239C157.602 209.362 159.123 207.841 161 207.841C162.877 207.841 164.398 209.362 164.398 211.239V218.761H171.921C173.797 218.761 175.319 220.283 175.319 222.16C175.319 224.036 173.797 225.558 171.921 225.558H157.36C153.212 225.558 149.838 228.932 149.838 233.08C149.838 237.227 153.212 240.602 157.36 240.602H164.64C172.536 240.602 178.959 247.025 178.959 254.92C178.959 262.816 172.536 269.239 164.64 269.239Z" fill="white"/>
<path d="M100.348 103.78C101.543 104.135 102.457 104.713 103.092 105.516C103.727 106.319 104.044 107.308 104.044 108.484C104.044 110.22 103.381 111.573 102.056 112.544C100.749 113.515 98.8734 114 96.428 114H86.768V94.4H95.896C98.1734 94.4 99.9467 94.8387 101.216 95.716C102.485 96.5933 103.12 97.844 103.12 99.468C103.12 100.439 102.877 101.297 102.392 102.044C101.907 102.772 101.225 103.351 100.348 103.78ZM91.276 102.52H95.504C96.4934 102.52 97.24 102.324 97.744 101.932C98.248 101.521 98.5 100.924 98.5 100.14C98.5 99.3747 98.2387 98.7867 97.716 98.376C97.212 97.9653 96.4747 97.76 95.504 97.76H91.276V102.52ZM96.26 110.64C98.388 110.64 99.452 109.8 99.452 108.12C99.452 106.496 98.388 105.684 96.26 105.684H91.276V110.64H96.26ZM115.219 103.752C117.179 103.771 118.663 104.209 119.671 105.068C120.679 105.927 121.183 107.159 121.183 108.764C121.183 110.444 120.614 111.741 119.475 112.656C118.337 113.571 116.722 114.028 114.631 114.028L107.295 114V98.936H111.635V103.752H115.219ZM122.807 98.936H127.147V114H122.807V98.936ZM114.239 110.92C115.079 110.939 115.723 110.761 116.171 110.388C116.619 110.015 116.843 109.455 116.843 108.708C116.843 107.98 116.619 107.448 116.171 107.112C115.742 106.776 115.098 106.599 114.239 106.58L111.635 106.552V110.92H114.239ZM143.426 102.52H135.698V114H131.358V98.936H143.426V102.52ZM152.168 114.224C150.581 114.224 149.153 113.897 147.884 113.244C146.633 112.572 145.653 111.648 144.944 110.472C144.234 109.296 143.88 107.961 143.88 106.468C143.88 104.975 144.234 103.64 144.944 102.464C145.653 101.288 146.633 100.373 147.884 99.72C149.153 99.048 150.581 98.712 152.168 98.712C153.754 98.712 155.173 99.048 156.424 99.72C157.674 100.373 158.654 101.288 159.364 102.464C160.073 103.64 160.428 104.975 160.428 106.468C160.428 107.961 160.073 109.296 159.364 110.472C158.654 111.648 157.674 112.572 156.424 113.244C155.173 113.897 153.754 114.224 152.168 114.224ZM152.168 110.64C153.288 110.64 154.202 110.267 154.912 109.52C155.64 108.755 156.004 107.737 156.004 106.468C156.004 105.199 155.64 104.191 154.912 103.444C154.202 102.679 153.288 102.296 152.168 102.296C151.048 102.296 150.124 102.679 149.396 103.444C148.668 104.191 148.304 105.199 148.304 106.468C148.304 107.737 148.668 108.755 149.396 109.52C150.124 110.267 151.048 110.64 152.168 110.64ZM180.097 110.416V117.248H176.037V114H165.453V117.248H161.393V110.416H162.009C162.943 110.397 163.587 109.847 163.941 108.764C164.296 107.681 164.52 106.141 164.613 104.144L164.809 98.936H177.941V110.416H180.097ZM168.561 104.452C168.505 105.983 168.384 107.233 168.197 108.204C168.029 109.175 167.703 109.912 167.217 110.416H173.573V102.52H168.645L168.561 104.452ZM182.846 98.936H187.186V104.816H193.738V98.936H198.106V114H193.738V108.372H187.186V114H182.846V98.936ZM208.14 98.712C210.473 98.712 212.265 99.272 213.516 100.392C214.766 101.493 215.392 103.164 215.392 105.404V114H211.304V112.124C210.482 113.524 208.952 114.224 206.712 114.224C205.554 114.224 204.546 114.028 203.688 113.636C202.848 113.244 202.204 112.703 201.756 112.012C201.308 111.321 201.084 110.537 201.084 109.66C201.084 108.26 201.606 107.159 202.652 106.356C203.716 105.553 205.349 105.152 207.552 105.152H211.024C211.024 104.2 210.734 103.472 210.156 102.968C209.577 102.445 208.709 102.184 207.552 102.184C206.749 102.184 205.956 102.315 205.172 102.576C204.406 102.819 203.753 103.155 203.212 103.584L201.644 100.532C202.465 99.9533 203.445 99.5053 204.584 99.188C205.741 98.8707 206.926 98.712 208.14 98.712ZM207.804 111.284C208.55 111.284 209.213 111.116 209.792 110.78C210.37 110.425 210.781 109.912 211.024 109.24V107.7H208.028C206.236 107.7 205.34 108.288 205.34 109.464C205.34 110.024 205.554 110.472 205.984 110.808C206.432 111.125 207.038 111.284 207.804 111.284ZM232.57 98.936V114H228.678V109.688H225.458L222.602 114H217.954L221.398 109.072C220.353 108.661 219.55 108.073 218.99 107.308C218.449 106.524 218.178 105.581 218.178 104.48C218.178 102.707 218.813 101.344 220.082 100.392C221.37 99.4213 223.134 98.936 225.374 98.936H232.57ZM225.458 102.492C224.525 102.492 223.815 102.66 223.33 102.996C222.863 103.332 222.63 103.873 222.63 104.62C222.63 105.367 222.854 105.917 223.302 106.272C223.769 106.608 224.469 106.776 225.402 106.776H228.678V102.492H225.458ZM141.545 144.416V151.304H137.485V148H124.577V132.936H128.917V144.416H134.993V132.936H139.361V144.416H141.545ZM158.935 140.524C158.935 140.58 158.907 140.972 158.851 141.7H147.455C147.661 142.633 148.146 143.371 148.911 143.912C149.677 144.453 150.629 144.724 151.767 144.724C152.551 144.724 153.242 144.612 153.839 144.388C154.455 144.145 155.025 143.772 155.547 143.268L157.871 145.788C156.453 147.412 154.381 148.224 151.655 148.224C149.957 148.224 148.454 147.897 147.147 147.244C145.841 146.572 144.833 145.648 144.123 144.472C143.414 143.296 143.059 141.961 143.059 140.468C143.059 138.993 143.405 137.668 144.095 136.492C144.805 135.297 145.766 134.373 146.979 133.72C148.211 133.048 149.583 132.712 151.095 132.712C152.57 132.712 153.905 133.029 155.099 133.664C156.294 134.299 157.227 135.213 157.899 136.408C158.59 137.584 158.935 138.956 158.935 140.524ZM151.123 136.016C150.134 136.016 149.303 136.296 148.631 136.856C147.959 137.416 147.549 138.181 147.399 139.152H154.819C154.67 138.2 154.259 137.444 153.587 136.884C152.915 136.305 152.094 136.016 151.123 136.016ZM162.284 132.936H166.624V138.816H173.176V132.936H177.544V148H173.176V142.372H166.624V148H162.284V132.936ZM187.577 132.712C189.91 132.712 191.702 133.272 192.953 134.392C194.204 135.493 194.829 137.164 194.829 139.404V148H190.741V146.124C189.92 147.524 188.389 148.224 186.149 148.224C184.992 148.224 183.984 148.028 183.125 147.636C182.285 147.244 181.641 146.703 181.193 146.012C180.745 145.321 180.521 144.537 180.521 143.66C180.521 142.26 181.044 141.159 182.089 140.356C183.153 139.553 184.786 139.152 186.989 139.152H190.461C190.461 138.2 190.172 137.472 189.593 136.968C189.014 136.445 188.146 136.184 186.989 136.184C186.186 136.184 185.393 136.315 184.609 136.576C183.844 136.819 183.19 137.155 182.649 137.584L181.081 134.532C181.902 133.953 182.882 133.505 184.021 133.188C185.178 132.871 186.364 132.712 187.577 132.712ZM187.241 145.284C187.988 145.284 188.65 145.116 189.229 144.78C189.808 144.425 190.218 143.912 190.461 143.24V141.7H187.465C185.673 141.7 184.777 142.288 184.777 143.464C184.777 144.024 184.992 144.472 185.421 144.808C185.869 145.125 186.476 145.284 187.241 145.284Z" fill="white"/>
</svg>
