<svg viewBox="0 0 308 475" fill="none" xmlns="http://www.w3.org/2000/svg">
<path d="M8.04789 83.4482L296.048 5.8112C300.814 4.52641 305.5 8.11654 305.5 13.0527V465C305.5 469.142 302.142 472.5 298 472.5H10C5.85787 472.5 2.5 469.142 2.5 465V90.6897C2.5 87.2994 4.77442 84.3306 8.04789 83.4482Z" fill="#539BA9" stroke="white" stroke-width="5"/>
<path d="M80.2692 328.4V341H78.9552V335.186H71.0712V341H69.7392V328.4H71.0712V334.016H78.9552V328.4H80.2692ZM87.4744 331.46C88.7104 331.46 89.6584 331.772 90.3184 332.396C90.9784 333.008 91.3084 333.92 91.3084 335.132V341H90.0844V339.524C89.7964 340.016 89.3704 340.4 88.8064 340.676C88.2544 340.952 87.5944 341.09 86.8264 341.09C85.7704 341.09 84.9304 340.838 84.3064 340.334C83.6824 339.83 83.3704 339.164 83.3704 338.336C83.3704 337.532 83.6584 336.884 84.2344 336.392C84.8224 335.9 85.7524 335.654 87.0244 335.654H90.0304V335.078C90.0304 334.262 89.8024 333.644 89.3464 333.224C88.8904 332.792 88.2244 332.576 87.3484 332.576C86.7484 332.576 86.1724 332.678 85.6204 332.882C85.0684 333.074 84.5944 333.344 84.1984 333.692L83.6224 332.738C84.1024 332.33 84.6784 332.018 85.3504 331.802C86.0224 331.574 86.7304 331.46 87.4744 331.46ZM87.0244 340.082C87.7444 340.082 88.3624 339.92 88.8784 339.596C89.3944 339.26 89.7784 338.78 90.0304 338.156V336.608H87.0604C85.4404 336.608 84.6304 337.172 84.6304 338.3C84.6304 338.852 84.8404 339.29 85.2604 339.614C85.6804 339.926 86.2684 340.082 87.0244 340.082ZM107.779 331.532V341H94.7106V331.532H95.9886V339.884H100.633V331.532H101.911V339.884H106.501V331.532H107.779ZM111.427 331.532H112.705V339.056L119.023 331.532H120.157V341H118.879V333.476L112.579 341H111.427V331.532ZM131.105 331.46C132.053 331.46 132.905 331.67 133.661 332.09C134.429 332.498 135.029 333.068 135.461 333.8C135.905 334.532 136.127 335.354 136.127 336.266C136.127 337.178 135.905 338.006 135.461 338.75C135.029 339.482 134.429 340.058 133.661 340.478C132.905 340.898 132.053 341.108 131.105 341.108C130.313 341.108 129.587 340.988 128.927 340.748C128.267 340.496 127.709 340.136 127.253 339.668L128.009 338.912C128.813 339.668 129.827 340.046 131.051 340.046C131.735 340.046 132.353 339.902 132.905 339.614C133.469 339.326 133.925 338.924 134.273 338.408C134.633 337.892 134.843 337.316 134.903 336.68H129.845V335.708H134.885C134.753 334.76 134.333 333.992 133.625 333.404C132.917 332.804 132.059 332.504 131.051 332.504C129.827 332.504 128.813 332.882 128.009 333.638L127.253 332.9C127.709 332.432 128.267 332.078 128.927 331.838C129.587 331.586 130.313 331.46 131.105 331.46ZM146.501 331.532V341H145.223V332.666H140.687L140.561 335.006C140.465 336.974 140.237 338.486 139.877 339.542C139.517 340.598 138.875 341.126 137.951 341.126C137.699 341.126 137.393 341.078 137.033 340.982L137.123 339.884C137.339 339.932 137.489 339.956 137.573 339.956C138.065 339.956 138.437 339.728 138.689 339.272C138.941 338.816 139.109 338.252 139.193 337.58C139.277 336.908 139.349 336.02 139.409 334.916L139.571 331.532H146.501ZM158.414 336.662H150.494C150.566 337.646 150.944 338.444 151.628 339.056C152.312 339.656 153.176 339.956 154.22 339.956C154.808 339.956 155.348 339.854 155.84 339.65C156.332 339.434 156.758 339.122 157.118 338.714L157.838 339.542C157.418 340.046 156.89 340.43 156.254 340.694C155.63 340.958 154.94 341.09 154.184 341.09C153.212 341.09 152.348 340.886 151.592 340.478C150.848 340.058 150.266 339.482 149.846 338.75C149.426 338.018 149.216 337.19 149.216 336.266C149.216 335.342 149.414 334.514 149.81 333.782C150.218 333.05 150.77 332.48 151.466 332.072C152.174 331.664 152.966 331.46 153.842 331.46C154.718 331.46 155.504 331.664 156.2 332.072C156.896 332.48 157.442 333.05 157.838 333.782C158.234 334.502 158.432 335.33 158.432 336.266L158.414 336.662ZM153.842 332.558C152.93 332.558 152.162 332.852 151.538 333.44C150.926 334.016 150.578 334.772 150.494 335.708H157.208C157.124 334.772 156.77 334.016 156.146 333.44C155.534 332.852 154.766 332.558 153.842 332.558ZM164.699 336.788H162.539V341H161.261V331.532H162.539V335.69H164.717L168.047 331.532H169.433L165.707 336.122L169.703 341H168.191L164.699 336.788ZM178.187 332.666H174.605V341H173.327V332.666H169.745V331.532H178.187V332.666ZM184.913 331.46C185.801 331.46 186.605 331.664 187.325 332.072C188.045 332.468 188.609 333.032 189.017 333.764C189.425 334.496 189.629 335.33 189.629 336.266C189.629 337.214 189.425 338.054 189.017 338.786C188.609 339.518 188.045 340.088 187.325 340.496C186.617 340.892 185.813 341.09 184.913 341.09C184.145 341.09 183.449 340.934 182.825 340.622C182.213 340.298 181.709 339.83 181.313 339.218V344.492H180.035V331.532H181.259V333.404C181.643 332.78 182.147 332.3 182.771 331.964C183.407 331.628 184.121 331.46 184.913 331.46ZM184.823 339.956C185.483 339.956 186.083 339.806 186.623 339.506C187.163 339.194 187.583 338.756 187.883 338.192C188.195 337.628 188.351 336.986 188.351 336.266C188.351 335.546 188.195 334.91 187.883 334.358C187.583 333.794 187.163 333.356 186.623 333.044C186.083 332.732 185.483 332.576 184.823 332.576C184.151 332.576 183.545 332.732 183.005 333.044C182.477 333.356 182.057 333.794 181.745 334.358C181.445 334.91 181.295 335.546 181.295 336.266C181.295 336.986 181.445 337.628 181.745 338.192C182.057 338.756 182.477 339.194 183.005 339.506C183.545 339.806 184.151 339.956 184.823 339.956ZM192.375 331.532H193.653V339.056L199.971 331.532H201.105V341H199.827V333.476L193.527 341H192.375V331.532ZM208.205 336.788H206.045V341H204.767V331.532H206.045V335.69H208.223L211.553 331.532H212.939L209.213 336.122L213.209 341H211.697L208.205 336.788ZM215.226 331.532H216.504V339.056L222.822 331.532H223.956V341H222.678V333.476L216.378 341H215.226V331.532ZM231.592 335.564H236.308V336.68H231.592V335.564ZM83.8179 353.532V363H82.5399V354.666H76.5999V363H75.3219V353.532H83.8179ZM92.3288 353.46C93.2168 353.46 94.0208 353.664 94.7408 354.072C95.4608 354.468 96.0248 355.032 96.4328 355.764C96.8408 356.496 97.0448 357.33 97.0448 358.266C97.0448 359.214 96.8408 360.054 96.4328 360.786C96.0248 361.518 95.4608 362.088 94.7408 362.496C94.0328 362.892 93.2288 363.09 92.3288 363.09C91.5608 363.09 90.8648 362.934 90.2408 362.622C89.6288 362.298 89.1248 361.83 88.7288 361.218V366.492H87.4508V353.532H88.6748V355.404C89.0588 354.78 89.5628 354.3 90.1868 353.964C90.8228 353.628 91.5368 353.46 92.3288 353.46ZM92.2388 361.956C92.8988 361.956 93.4988 361.806 94.0388 361.506C94.5788 361.194 94.9988 360.756 95.2988 360.192C95.6108 359.628 95.7668 358.986 95.7668 358.266C95.7668 357.546 95.6108 356.91 95.2988 356.358C94.9988 355.794 94.5788 355.356 94.0388 355.044C93.4988 354.732 92.8988 354.576 92.2388 354.576C91.5668 354.576 90.9608 354.732 90.4208 355.044C89.8928 355.356 89.4728 355.794 89.1608 356.358C88.8608 356.91 88.7108 357.546 88.7108 358.266C88.7108 358.986 88.8608 359.628 89.1608 360.192C89.4728 360.756 89.8928 361.194 90.4208 361.506C90.9608 361.806 91.5668 361.956 92.2388 361.956ZM103.697 363.09C102.785 363.09 101.963 362.886 101.231 362.478C100.499 362.058 99.9227 361.482 99.5027 360.75C99.0827 360.018 98.8727 359.19 98.8727 358.266C98.8727 357.342 99.0827 356.514 99.5027 355.782C99.9227 355.05 100.499 354.48 101.231 354.072C101.963 353.664 102.785 353.46 103.697 353.46C104.609 353.46 105.431 353.664 106.163 354.072C106.895 354.48 107.465 355.05 107.873 355.782C108.293 356.514 108.503 357.342 108.503 358.266C108.503 359.19 108.293 360.018 107.873 360.75C107.465 361.482 106.895 362.058 106.163 362.478C105.431 362.886 104.609 363.09 103.697 363.09ZM103.697 361.956C104.369 361.956 104.969 361.806 105.497 361.506C106.037 361.194 106.457 360.756 106.757 360.192C107.057 359.628 107.207 358.986 107.207 358.266C107.207 357.546 107.057 356.904 106.757 356.34C106.457 355.776 106.037 355.344 105.497 355.044C104.969 354.732 104.369 354.576 103.697 354.576C103.025 354.576 102.419 354.732 101.879 355.044C101.351 355.344 100.931 355.776 100.619 356.34C100.319 356.904 100.169 357.546 100.169 358.266C100.169 358.986 100.319 359.628 100.619 360.192C100.931 360.756 101.351 361.194 101.879 361.506C102.419 361.806 103.025 361.956 103.697 361.956ZM122.664 358.248C122.664 359.724 122.178 360.882 121.206 361.722C120.234 362.562 118.86 363.018 117.084 363.09V366.492H115.842V363.108C114.078 363.036 112.71 362.58 111.738 361.74C110.778 360.888 110.298 359.724 110.298 358.248C110.298 356.784 110.778 355.638 111.738 354.81C112.71 353.982 114.078 353.532 115.842 353.46V349.644H117.084V353.46C118.86 353.544 120.234 354 121.206 354.828C122.178 355.656 122.664 356.796 122.664 358.248ZM111.558 358.248C111.558 359.376 111.918 360.258 112.638 360.894C113.37 361.53 114.438 361.89 115.842 361.974V354.594C114.45 354.666 113.388 355.02 112.656 355.656C111.924 356.28 111.558 357.144 111.558 358.248ZM117.084 361.974C118.488 361.902 119.556 361.548 120.288 360.912C121.032 360.276 121.404 359.388 121.404 358.248C121.404 357.132 121.032 356.262 120.288 355.638C119.556 355.014 118.488 354.666 117.084 354.594V361.974ZM133.647 358.662H125.727C125.799 359.646 126.177 360.444 126.861 361.056C127.545 361.656 128.409 361.956 129.453 361.956C130.041 361.956 130.581 361.854 131.073 361.65C131.565 361.434 131.991 361.122 132.351 360.714L133.071 361.542C132.651 362.046 132.123 362.43 131.487 362.694C130.863 362.958 130.173 363.09 129.417 363.09C128.445 363.09 127.581 362.886 126.825 362.478C126.081 362.058 125.499 361.482 125.079 360.75C124.659 360.018 124.449 359.19 124.449 358.266C124.449 357.342 124.647 356.514 125.043 355.782C125.451 355.05 126.003 354.48 126.699 354.072C127.407 353.664 128.199 353.46 129.075 353.46C129.951 353.46 130.737 353.664 131.433 354.072C132.129 354.48 132.675 355.05 133.071 355.782C133.467 356.502 133.665 357.33 133.665 358.266L133.647 358.662ZM129.075 354.558C128.163 354.558 127.395 354.852 126.771 355.44C126.159 356.016 125.811 356.772 125.727 357.708H132.441C132.357 356.772 132.003 356.016 131.379 355.44C130.767 354.852 129.999 354.558 129.075 354.558ZM140.454 363.09C139.518 363.09 138.678 362.886 137.934 362.478C137.202 362.07 136.626 361.5 136.206 360.768C135.786 360.024 135.576 359.19 135.576 358.266C135.576 357.342 135.786 356.514 136.206 355.782C136.626 355.05 137.202 354.48 137.934 354.072C138.678 353.664 139.518 353.46 140.454 353.46C141.27 353.46 141.996 353.622 142.632 353.946C143.28 354.258 143.79 354.72 144.162 355.332L143.208 355.98C142.896 355.512 142.5 355.164 142.02 354.936C141.54 354.696 141.018 354.576 140.454 354.576C139.77 354.576 139.152 354.732 138.6 355.044C138.06 355.344 137.634 355.776 137.322 356.34C137.022 356.904 136.872 357.546 136.872 358.266C136.872 358.998 137.022 359.646 137.322 360.21C137.634 360.762 138.06 361.194 138.6 361.506C139.152 361.806 139.77 361.956 140.454 361.956C141.018 361.956 141.54 361.842 142.02 361.614C142.5 361.386 142.896 361.038 143.208 360.57L144.162 361.218C143.79 361.83 143.28 362.298 142.632 362.622C141.984 362.934 141.258 363.09 140.454 363.09ZM150.438 363.09C149.502 363.09 148.662 362.886 147.918 362.478C147.186 362.07 146.61 361.5 146.19 360.768C145.77 360.024 145.56 359.19 145.56 358.266C145.56 357.342 145.77 356.514 146.19 355.782C146.61 355.05 147.186 354.48 147.918 354.072C148.662 353.664 149.502 353.46 150.438 353.46C151.254 353.46 151.98 353.622 152.616 353.946C153.264 354.258 153.774 354.72 154.146 355.332L153.192 355.98C152.88 355.512 152.484 355.164 152.004 354.936C151.524 354.696 151.002 354.576 150.438 354.576C149.754 354.576 149.136 354.732 148.584 355.044C148.044 355.344 147.618 355.776 147.306 356.34C147.006 356.904 146.856 357.546 146.856 358.266C146.856 358.998 147.006 359.646 147.306 360.21C147.618 360.762 148.044 361.194 148.584 361.506C149.136 361.806 149.754 361.956 150.438 361.956C151.002 361.956 151.524 361.842 152.004 361.614C152.484 361.386 152.88 361.038 153.192 360.57L154.146 361.218C153.774 361.83 153.264 362.298 152.616 362.622C151.968 362.934 151.242 363.09 150.438 363.09ZM156.621 353.532H157.899V361.056L164.217 353.532H165.351V363H164.073V355.476L157.773 363H156.621V353.532ZM172.919 363.09C172.007 363.09 171.185 362.886 170.453 362.478C169.721 362.058 169.145 361.482 168.725 360.75C168.305 360.018 168.095 359.19 168.095 358.266C168.095 357.342 168.305 356.514 168.725 355.782C169.145 355.05 169.721 354.48 170.453 354.072C171.185 353.664 172.007 353.46 172.919 353.46C173.831 353.46 174.653 353.664 175.385 354.072C176.117 354.48 176.687 355.05 177.095 355.782C177.515 356.514 177.725 357.342 177.725 358.266C177.725 359.19 177.515 360.018 177.095 360.75C176.687 361.482 176.117 362.058 175.385 362.478C174.653 362.886 173.831 363.09 172.919 363.09ZM172.919 361.956C173.591 361.956 174.191 361.806 174.719 361.506C175.259 361.194 175.679 360.756 175.979 360.192C176.279 359.628 176.429 358.986 176.429 358.266C176.429 357.546 176.279 356.904 175.979 356.34C175.679 355.776 175.259 355.344 174.719 355.044C174.191 354.732 173.591 354.576 172.919 354.576C172.247 354.576 171.641 354.732 171.101 355.044C170.573 355.344 170.153 355.776 169.841 356.34C169.541 356.904 169.391 357.546 169.391 358.266C169.391 358.986 169.541 359.628 169.841 360.192C170.153 360.756 170.573 361.194 171.101 361.506C171.641 361.806 172.247 361.956 172.919 361.956ZM180.457 353.532H181.735V357.726H187.693V353.532H188.971V363H187.693V358.824H181.735V363H180.457V353.532ZM195.861 353.46C197.097 353.46 198.045 353.772 198.705 354.396C199.365 355.008 199.695 355.92 199.695 357.132V363H198.471V361.524C198.183 362.016 197.757 362.4 197.193 362.676C196.641 362.952 195.981 363.09 195.213 363.09C194.157 363.09 193.317 362.838 192.693 362.334C192.069 361.83 191.757 361.164 191.757 360.336C191.757 359.532 192.045 358.884 192.621 358.392C193.209 357.9 194.139 357.654 195.411 357.654H198.417V357.078C198.417 356.262 198.189 355.644 197.733 355.224C197.277 354.792 196.611 354.576 195.735 354.576C195.135 354.576 194.559 354.678 194.007 354.882C193.455 355.074 192.981 355.344 192.585 355.692L192.009 354.738C192.489 354.33 193.065 354.018 193.737 353.802C194.409 353.574 195.117 353.46 195.861 353.46ZM195.411 362.082C196.131 362.082 196.749 361.92 197.265 361.596C197.781 361.26 198.165 360.78 198.417 360.156V358.608H195.447C193.827 358.608 193.017 359.172 193.017 360.3C193.017 360.852 193.227 361.29 193.647 361.614C194.067 361.926 194.655 362.082 195.411 362.082ZM210.837 353.532V363H209.559V354.666H205.023L204.897 357.006C204.801 358.974 204.573 360.486 204.213 361.542C203.853 362.598 203.211 363.126 202.287 363.126C202.035 363.126 201.729 363.078 201.369 362.982L201.459 361.884C201.675 361.932 201.825 361.956 201.909 361.956C202.401 361.956 202.773 361.728 203.025 361.272C203.277 360.816 203.445 360.252 203.529 359.58C203.613 358.908 203.685 358.02 203.745 356.916L203.907 353.532H210.837ZM218.448 356.88C219.636 356.892 220.542 357.156 221.166 357.672C221.79 358.188 222.102 358.932 222.102 359.904C222.102 360.912 221.766 361.686 221.094 362.226C220.422 362.766 219.462 363.03 218.214 363.018L214.47 363V353.532H215.748V356.844L218.448 356.88ZM223.686 353.532H224.964V363H223.686V353.532ZM218.142 362.046C219.018 362.058 219.678 361.884 220.122 361.524C220.578 361.152 220.806 360.612 220.806 359.904C220.806 359.208 220.584 358.692 220.14 358.356C219.696 358.02 219.03 357.846 218.142 357.834L215.748 357.798V362.01L218.142 362.046ZM22.8913 385.09C21.9553 385.09 21.1153 384.886 20.3713 384.478C19.6393 384.07 19.0633 383.5 18.6433 382.768C18.2233 382.024 18.0133 381.19 18.0133 380.266C18.0133 379.342 18.2233 378.514 18.6433 377.782C19.0633 377.05 19.6393 376.48 20.3713 376.072C21.1153 375.664 21.9553 375.46 22.8913 375.46C23.7073 375.46 24.4333 375.622 25.0693 375.946C25.7173 376.258 26.2273 376.72 26.5993 377.332L25.6453 377.98C25.3333 377.512 24.9373 377.164 24.4573 376.936C23.9773 376.696 23.4553 376.576 22.8913 376.576C22.2073 376.576 21.5893 376.732 21.0373 377.044C20.4973 377.344 20.0713 377.776 19.7593 378.34C19.4593 378.904 19.3093 379.546 19.3093 380.266C19.3093 380.998 19.4593 381.646 19.7593 382.21C20.0713 382.762 20.4973 383.194 21.0373 383.506C21.5893 383.806 22.2073 383.956 22.8913 383.956C23.4553 383.956 23.9773 383.842 24.4573 383.614C24.9373 383.386 25.3333 383.038 25.6453 382.57L26.5993 383.218C26.2273 383.83 25.7173 384.298 25.0693 384.622C24.4213 384.934 23.6953 385.09 22.8913 385.09ZM32.8217 385.09C31.9097 385.09 31.0877 384.886 30.3557 384.478C29.6237 384.058 29.0477 383.482 28.6277 382.75C28.2077 382.018 27.9977 381.19 27.9977 380.266C27.9977 379.342 28.2077 378.514 28.6277 377.782C29.0477 377.05 29.6237 376.48 30.3557 376.072C31.0877 375.664 31.9097 375.46 32.8217 375.46C33.7337 375.46 34.5557 375.664 35.2877 376.072C36.0197 376.48 36.5897 377.05 36.9977 377.782C37.4177 378.514 37.6277 379.342 37.6277 380.266C37.6277 381.19 37.4177 382.018 36.9977 382.75C36.5897 383.482 36.0197 384.058 35.2877 384.478C34.5557 384.886 33.7337 385.09 32.8217 385.09ZM32.8217 383.956C33.4937 383.956 34.0937 383.806 34.6217 383.506C35.1617 383.194 35.5817 382.756 35.8817 382.192C36.1817 381.628 36.3317 380.986 36.3317 380.266C36.3317 379.546 36.1817 378.904 35.8817 378.34C35.5817 377.776 35.1617 377.344 34.6217 377.044C34.0937 376.732 33.4937 376.576 32.8217 376.576C32.1497 376.576 31.5437 376.732 31.0037 377.044C30.4757 377.344 30.0557 377.776 29.7437 378.34C29.4437 378.904 29.2937 379.546 29.2937 380.266C29.2937 380.986 29.4437 381.628 29.7437 382.192C30.0557 382.756 30.4757 383.194 31.0037 383.506C31.5437 383.806 32.1497 383.956 32.8217 383.956ZM49.03 385.09C48.094 385.09 47.254 384.886 46.51 384.478C45.778 384.07 45.202 383.5 44.782 382.768C44.362 382.024 44.152 381.19 44.152 380.266C44.152 379.342 44.362 378.514 44.782 377.782C45.202 377.05 45.778 376.48 46.51 376.072C47.254 375.664 48.094 375.46 49.03 375.46C49.846 375.46 50.572 375.622 51.208 375.946C51.856 376.258 52.366 376.72 52.738 377.332L51.784 377.98C51.472 377.512 51.076 377.164 50.596 376.936C50.116 376.696 49.594 376.576 49.03 376.576C48.346 376.576 47.728 376.732 47.176 377.044C46.636 377.344 46.21 377.776 45.898 378.34C45.598 378.904 45.448 379.546 45.448 380.266C45.448 380.998 45.598 381.646 45.898 382.21C46.21 382.762 46.636 383.194 47.176 383.506C47.728 383.806 48.346 383.956 49.03 383.956C49.594 383.956 50.116 383.842 50.596 383.614C51.076 383.386 51.472 383.038 51.784 382.57L52.738 383.218C52.366 383.83 51.856 384.298 51.208 384.622C50.56 384.934 49.834 385.09 49.03 385.09ZM61.6968 376.666H58.1148V385H56.8368V376.666H53.2548V375.532H61.6968V376.666ZM66.8026 375.46C68.0386 375.46 68.9866 375.772 69.6466 376.396C70.3066 377.008 70.6366 377.92 70.6366 379.132V385H69.4126V383.524C69.1246 384.016 68.6986 384.4 68.1346 384.676C67.5826 384.952 66.9226 385.09 66.1546 385.09C65.0986 385.09 64.2586 384.838 63.6346 384.334C63.0106 383.83 62.6986 383.164 62.6986 382.336C62.6986 381.532 62.9866 380.884 63.5626 380.392C64.1506 379.9 65.0806 379.654 66.3526 379.654H69.3586V379.078C69.3586 378.262 69.1306 377.644 68.6746 377.224C68.2186 376.792 67.5526 376.576 66.6766 376.576C66.0766 376.576 65.5006 376.678 64.9486 376.882C64.3966 377.074 63.9226 377.344 63.5266 377.692L62.9506 376.738C63.4306 376.33 64.0066 376.018 64.6786 375.802C65.3506 375.574 66.0586 375.46 66.8026 375.46ZM66.3526 384.082C67.0726 384.082 67.6906 383.92 68.2066 383.596C68.7226 383.26 69.1066 382.78 69.3586 382.156V380.608H66.3886C64.7686 380.608 63.9586 381.172 63.9586 382.3C63.9586 382.852 64.1686 383.29 64.5886 383.614C65.0086 383.926 65.5966 384.082 66.3526 384.082ZM82.3367 380.788H80.2847V385H79.0067V380.788H76.9547L74.0567 385H72.5267L75.9287 380.122L72.7967 375.532H74.1827L76.9547 379.69H79.0067V375.532H80.2847V379.69H82.3367L85.1267 375.532H86.5127L83.3807 380.14L86.7827 385H85.2527L82.3367 380.788ZM96.8558 380.662H88.9358C89.0078 381.646 89.3858 382.444 90.0698 383.056C90.7538 383.656 91.6178 383.956 92.6618 383.956C93.2498 383.956 93.7898 383.854 94.2818 383.65C94.7738 383.434 95.1998 383.122 95.5598 382.714L96.2798 383.542C95.8598 384.046 95.3318 384.43 94.6958 384.694C94.0718 384.958 93.3818 385.09 92.6258 385.09C91.6538 385.09 90.7898 384.886 90.0338 384.478C89.2898 384.058 88.7078 383.482 88.2878 382.75C87.8678 382.018 87.6578 381.19 87.6578 380.266C87.6578 379.342 87.8558 378.514 88.2518 377.782C88.6598 377.05 89.2118 376.48 89.9078 376.072C90.6158 375.664 91.4078 375.46 92.2838 375.46C93.1598 375.46 93.9458 375.664 94.6418 376.072C95.3378 376.48 95.8838 377.05 96.2798 377.782C96.6758 378.502 96.8738 379.33 96.8738 380.266L96.8558 380.662ZM92.2838 376.558C91.3718 376.558 90.6038 376.852 89.9798 377.44C89.3678 378.016 89.0198 378.772 88.9358 379.708H95.6498C95.5658 378.772 95.2118 378.016 94.5878 377.44C93.9758 376.852 93.2078 376.558 92.2838 376.558ZM110.287 375.532V385H109.117V377.512L105.283 383.848H104.707L100.873 377.494V385H99.7028V375.532H100.999L105.013 382.354L109.099 375.532H110.287ZM122.54 385.09C121.628 385.09 120.806 384.886 120.074 384.478C119.342 384.058 118.766 383.482 118.346 382.75C117.926 382.018 117.716 381.19 117.716 380.266C117.716 379.342 117.926 378.514 118.346 377.782C118.766 377.05 119.342 376.48 120.074 376.072C120.806 375.664 121.628 375.46 122.54 375.46C123.452 375.46 124.274 375.664 125.006 376.072C125.738 376.48 126.308 377.05 126.716 377.782C127.136 378.514 127.346 379.342 127.346 380.266C127.346 381.19 127.136 382.018 126.716 382.75C126.308 383.482 125.738 384.058 125.006 384.478C124.274 384.886 123.452 385.09 122.54 385.09ZM122.54 383.956C123.212 383.956 123.812 383.806 124.34 383.506C124.88 383.194 125.3 382.756 125.6 382.192C125.9 381.628 126.05 380.986 126.05 380.266C126.05 379.546 125.9 378.904 125.6 378.34C125.3 377.776 124.88 377.344 124.34 377.044C123.812 376.732 123.212 376.576 122.54 376.576C121.868 376.576 121.262 376.732 120.722 377.044C120.194 377.344 119.774 377.776 119.462 378.34C119.162 378.904 119.012 379.546 119.012 380.266C119.012 380.986 119.162 381.628 119.462 382.192C119.774 382.756 120.194 383.194 120.722 383.506C121.262 383.806 121.868 383.956 122.54 383.956ZM136.386 376.666H132.804V385H131.526V376.666H127.944V375.532H136.386V376.666ZM145.375 377.566C147.199 377.566 148.525 377.896 149.353 378.556C150.193 379.204 150.613 380.116 150.613 381.292C150.613 382.024 150.439 382.678 150.091 383.254C149.755 383.83 149.245 384.286 148.561 384.622C147.877 384.946 147.037 385.108 146.041 385.108C145.141 385.108 144.283 384.964 143.467 384.676C142.663 384.376 142.015 383.98 141.523 383.488L142.153 382.462C142.573 382.894 143.125 383.248 143.809 383.524C144.493 383.788 145.231 383.92 146.023 383.92C147.067 383.92 147.871 383.686 148.435 383.218C149.011 382.75 149.299 382.126 149.299 381.346C149.299 380.482 148.975 379.828 148.327 379.384C147.691 378.94 146.611 378.718 145.087 378.718H142.405L143.053 372.4H149.947V373.552H144.187L143.755 377.566H145.375ZM165.591 375.532V385H164.313V376.666H159.777L159.651 379.006C159.555 380.974 159.327 382.486 158.967 383.542C158.607 384.598 157.965 385.126 157.041 385.126C156.789 385.126 156.483 385.078 156.123 384.982L156.213 383.884C156.429 383.932 156.579 383.956 156.663 383.956C157.155 383.956 157.527 383.728 157.779 383.272C158.031 382.816 158.199 382.252 158.283 381.58C158.367 380.908 158.439 380.02 158.499 378.916L158.661 375.532H165.591ZM177.504 380.662H169.584C169.656 381.646 170.034 382.444 170.718 383.056C171.402 383.656 172.266 383.956 173.31 383.956C173.898 383.956 174.438 383.854 174.93 383.65C175.422 383.434 175.848 383.122 176.208 382.714L176.928 383.542C176.508 384.046 175.98 384.43 175.344 384.694C174.72 384.958 174.03 385.09 173.274 385.09C172.302 385.09 171.438 384.886 170.682 384.478C169.938 384.058 169.356 383.482 168.936 382.75C168.516 382.018 168.306 381.19 168.306 380.266C168.306 379.342 168.504 378.514 168.9 377.782C169.308 377.05 169.86 376.48 170.556 376.072C171.264 375.664 172.056 375.46 172.932 375.46C173.808 375.46 174.594 375.664 175.29 376.072C175.986 376.48 176.532 377.05 176.928 377.782C177.324 378.502 177.522 379.33 177.522 380.266L177.504 380.662ZM172.932 376.558C172.02 376.558 171.252 376.852 170.628 377.44C170.016 378.016 169.668 378.772 169.584 379.708H176.298C176.214 378.772 175.86 378.016 175.236 377.44C174.624 376.852 173.856 376.558 172.932 376.558ZM186.589 376.666H183.007V385H181.729V376.666H178.147V375.532H186.589V376.666ZM187.737 383.128C188.013 383.128 188.241 383.224 188.421 383.416C188.601 383.596 188.691 383.824 188.691 384.1C188.691 384.244 188.667 384.4 188.619 384.568C188.583 384.736 188.523 384.928 188.439 385.144L187.683 387.628H186.819L187.431 385.018C187.239 384.958 187.083 384.85 186.963 384.694C186.843 384.526 186.783 384.328 186.783 384.1C186.783 383.824 186.873 383.596 187.053 383.416C187.233 383.224 187.461 383.128 187.737 383.128ZM196.154 375.532H197.432V383.056L203.75 375.532H204.884V385H203.606V377.476L197.306 385H196.154V375.532ZM219.131 375.532V385H217.961V377.512L214.127 383.848H213.551L209.717 377.494V385H208.547V375.532H209.843L213.857 382.354L217.943 375.532H219.131ZM231.047 380.662H223.127C223.199 381.646 223.577 382.444 224.261 383.056C224.945 383.656 225.809 383.956 226.853 383.956C227.441 383.956 227.981 383.854 228.473 383.65C228.965 383.434 229.391 383.122 229.751 382.714L230.471 383.542C230.051 384.046 229.523 384.43 228.887 384.694C228.263 384.958 227.573 385.09 226.817 385.09C225.845 385.09 224.981 384.886 224.225 384.478C223.481 384.058 222.899 383.482 222.479 382.75C222.059 382.018 221.849 381.19 221.849 380.266C221.849 379.342 222.047 378.514 222.443 377.782C222.851 377.05 223.403 376.48 224.099 376.072C224.807 375.664 225.599 375.46 226.475 375.46C227.351 375.46 228.137 375.664 228.833 376.072C229.529 376.48 230.075 377.05 230.471 377.782C230.867 378.502 231.065 379.33 231.065 380.266L231.047 380.662ZM226.475 376.558C225.563 376.558 224.795 376.852 224.171 377.44C223.559 378.016 223.211 378.772 223.127 379.708H229.841C229.757 378.772 229.403 378.016 228.779 377.44C228.167 376.852 227.399 376.558 226.475 376.558ZM242.03 375.46C242.918 375.46 243.716 375.664 244.424 376.072C245.144 376.48 245.708 377.05 246.116 377.782C246.524 378.514 246.728 379.342 246.728 380.266C246.728 381.19 246.524 382.018 246.116 382.75C245.708 383.482 245.144 384.058 244.424 384.478C243.716 384.886 242.918 385.09 242.03 385.09C241.19 385.09 240.428 384.91 239.744 384.55C239.06 384.178 238.502 383.668 238.07 383.02C237.65 382.372 237.404 381.628 237.332 380.788H235.172V385H233.894V375.532H235.172V379.618H237.35C237.446 378.802 237.704 378.082 238.124 377.458C238.556 376.822 239.108 376.33 239.78 375.982C240.452 375.634 241.202 375.46 242.03 375.46ZM242.03 383.974C242.678 383.974 243.26 383.818 243.776 383.506C244.304 383.194 244.718 382.756 245.018 382.192C245.318 381.628 245.468 380.986 245.468 380.266C245.468 379.546 245.318 378.904 245.018 378.34C244.718 377.776 244.304 377.344 243.776 377.044C243.26 376.732 242.678 376.576 242.03 376.576C241.382 376.576 240.794 376.732 240.266 377.044C239.75 377.344 239.342 377.776 239.042 378.34C238.742 378.904 238.592 379.546 238.592 380.266C238.592 380.986 238.742 381.628 239.042 382.192C239.342 382.756 239.75 383.194 240.266 383.506C240.794 383.818 241.382 383.974 242.03 383.974ZM262.536 375.532V385H249.468V375.532H250.746V383.884H255.39V375.532H256.668V383.884H261.258V375.532H262.536ZM263.994 383.884V387.07H262.788V385H261.186V383.884H263.994ZM266.185 375.532H267.463V383.056L273.781 375.532H274.915V385H273.637V377.476L267.337 385H266.185V375.532ZM286.858 380.662H278.938C279.01 381.646 279.388 382.444 280.072 383.056C280.756 383.656 281.62 383.956 282.664 383.956C283.252 383.956 283.792 383.854 284.284 383.65C284.776 383.434 285.202 383.122 285.562 382.714L286.282 383.542C285.862 384.046 285.334 384.43 284.698 384.694C284.074 384.958 283.384 385.09 282.628 385.09C281.656 385.09 280.792 384.886 280.036 384.478C279.292 384.058 278.71 383.482 278.29 382.75C277.87 382.018 277.66 381.19 277.66 380.266C277.66 379.342 277.858 378.514 278.254 377.782C278.662 377.05 279.214 376.48 279.91 376.072C280.618 375.664 281.41 375.46 282.286 375.46C283.162 375.46 283.948 375.664 284.644 376.072C285.34 376.48 285.886 377.05 286.282 377.782C286.678 378.502 286.876 379.33 286.876 380.266L286.858 380.662ZM282.286 376.558C281.374 376.558 280.606 376.852 279.982 377.44C279.37 378.016 279.022 378.772 278.938 379.708H285.652C285.568 378.772 285.214 378.016 284.59 377.44C283.978 376.852 283.21 376.558 282.286 376.558ZM128.361 405.884V409.286H127.155V407H118.677V409.286H117.471V405.884H118.011C118.647 405.848 119.079 405.38 119.307 404.48C119.535 403.58 119.691 402.32 119.775 400.7L119.901 397.532H126.885V405.884H128.361ZM120.945 400.772C120.885 402.116 120.771 403.226 120.603 404.102C120.435 404.966 120.135 405.56 119.703 405.884H125.607V398.666H121.053L120.945 400.772ZM134.757 407.09C133.845 407.09 133.023 406.886 132.291 406.478C131.559 406.058 130.983 405.482 130.563 404.75C130.143 404.018 129.933 403.19 129.933 402.266C129.933 401.342 130.143 400.514 130.563 399.782C130.983 399.05 131.559 398.48 132.291 398.072C133.023 397.664 133.845 397.46 134.757 397.46C135.669 397.46 136.491 397.664 137.223 398.072C137.955 398.48 138.525 399.05 138.933 399.782C139.353 400.514 139.563 401.342 139.563 402.266C139.563 403.19 139.353 404.018 138.933 404.75C138.525 405.482 137.955 406.058 137.223 406.478C136.491 406.886 135.669 407.09 134.757 407.09ZM134.757 405.956C135.429 405.956 136.029 405.806 136.557 405.506C137.097 405.194 137.517 404.756 137.817 404.192C138.117 403.628 138.267 402.986 138.267 402.266C138.267 401.546 138.117 400.904 137.817 400.34C137.517 399.776 137.097 399.344 136.557 399.044C136.029 398.732 135.429 398.576 134.757 398.576C134.085 398.576 133.479 398.732 132.939 399.044C132.411 399.344 131.991 399.776 131.679 400.34C131.379 400.904 131.229 401.546 131.229 402.266C131.229 402.986 131.379 403.628 131.679 404.192C131.991 404.756 132.411 405.194 132.939 405.506C133.479 405.806 134.085 405.956 134.757 405.956ZM150.791 397.532V407H149.513V398.666H143.573V407H142.295V397.532H150.791ZM162.469 397.532L157.735 408.134C157.351 409.022 156.907 409.652 156.403 410.024C155.899 410.396 155.293 410.582 154.585 410.582C154.129 410.582 153.703 410.51 153.307 410.366C152.911 410.222 152.569 410.006 152.281 409.718L152.875 408.764C153.355 409.244 153.931 409.484 154.603 409.484C155.035 409.484 155.401 409.364 155.701 409.124C156.013 408.884 156.301 408.476 156.565 407.9L156.979 406.982L152.749 397.532H154.081L157.645 405.578L161.209 397.532H162.469ZM168.157 407.09C167.221 407.09 166.381 406.886 165.637 406.478C164.905 406.07 164.329 405.5 163.909 404.768C163.489 404.024 163.279 403.19 163.279 402.266C163.279 401.342 163.489 400.514 163.909 399.782C164.329 399.05 164.905 398.48 165.637 398.072C166.381 397.664 167.221 397.46 168.157 397.46C168.973 397.46 169.699 397.622 170.335 397.946C170.983 398.258 171.493 398.72 171.865 399.332L170.911 399.98C170.599 399.512 170.203 399.164 169.723 398.936C169.243 398.696 168.721 398.576 168.157 398.576C167.473 398.576 166.855 398.732 166.303 399.044C165.763 399.344 165.337 399.776 165.025 400.34C164.725 400.904 164.575 401.546 164.575 402.266C164.575 402.998 164.725 403.646 165.025 404.21C165.337 404.762 165.763 405.194 166.303 405.506C166.855 405.806 167.473 405.956 168.157 405.956C168.721 405.956 169.243 405.842 169.723 405.614C170.203 405.386 170.599 405.038 170.911 404.57L171.865 405.218C171.493 405.83 170.983 406.298 170.335 406.622C169.687 406.934 168.961 407.09 168.157 407.09ZM177.777 402.788H175.617V407H174.339V397.532H175.617V401.69H177.795L181.125 397.532H182.511L178.785 402.122L182.781 407H181.269L177.777 402.788ZM105.312 425.688H102.792V429H101.496V425.688H94.386V424.752L101.064 416.4H102.504L96.06 424.536H101.532V421.62H102.792V424.536H105.312V425.688ZM112.095 419.532H113.373V427.056L119.691 419.532H120.825V429H119.547V421.476L113.247 429H112.095V419.532ZM131.629 421.566C133.453 421.566 134.779 421.896 135.607 422.556C136.447 423.204 136.867 424.116 136.867 425.292C136.867 426.024 136.693 426.678 136.345 427.254C136.009 427.83 135.499 428.286 134.815 428.622C134.131 428.946 133.291 429.108 132.295 429.108C131.395 429.108 130.537 428.964 129.721 428.676C128.917 428.376 128.269 427.98 127.777 427.488L128.407 426.462C128.827 426.894 129.379 427.248 130.063 427.524C130.747 427.788 131.485 427.92 132.277 427.92C133.321 427.92 134.125 427.686 134.689 427.218C135.265 426.75 135.553 426.126 135.553 425.346C135.553 424.482 135.229 423.828 134.581 423.384C133.945 422.94 132.865 422.718 131.341 422.718H128.659L129.307 416.4H136.201V417.552H130.441L130.009 421.566H131.629ZM150.801 420.666H145.383V429H144.105V419.532H150.801V420.666ZM157.526 419.46C158.414 419.46 159.218 419.664 159.938 420.072C160.658 420.468 161.222 421.032 161.63 421.764C162.038 422.496 162.242 423.33 162.242 424.266C162.242 425.214 162.038 426.054 161.63 426.786C161.222 427.518 160.658 428.088 159.938 428.496C159.23 428.892 158.426 429.09 157.526 429.09C156.758 429.09 156.062 428.934 155.438 428.622C154.826 428.298 154.322 427.83 153.926 427.218V432.492H152.648V419.532H153.872V421.404C154.256 420.78 154.76 420.3 155.384 419.964C156.02 419.628 156.734 419.46 157.526 419.46ZM157.436 427.956C158.096 427.956 158.696 427.806 159.236 427.506C159.776 427.194 160.196 426.756 160.496 426.192C160.808 425.628 160.964 424.986 160.964 424.266C160.964 423.546 160.808 422.91 160.496 422.358C160.196 421.794 159.776 421.356 159.236 421.044C158.696 420.732 158.096 420.576 157.436 420.576C156.764 420.576 156.158 420.732 155.618 421.044C155.09 421.356 154.67 421.794 154.358 422.358C154.058 422.91 153.908 423.546 153.908 424.266C153.908 424.986 154.058 425.628 154.358 426.192C154.67 426.756 155.09 427.194 155.618 427.506C156.158 427.806 156.764 427.956 157.436 427.956ZM172.77 419.532L168.036 430.134C167.652 431.022 167.208 431.652 166.704 432.024C166.2 432.396 165.594 432.582 164.886 432.582C164.43 432.582 164.004 432.51 163.608 432.366C163.212 432.222 162.87 432.006 162.582 431.718L163.176 430.764C163.656 431.244 164.232 431.484 164.904 431.484C165.336 431.484 165.702 431.364 166.002 431.124C166.314 430.884 166.602 430.476 166.866 429.9L167.28 428.982L163.05 419.532H164.382L167.946 427.578L171.51 419.532H172.77ZM183.257 419.532V429H181.979V420.666H176.039V429H174.761V419.532H183.257ZM195.386 419.532V429H194.108V420.666H188.168V429H186.89V419.532H195.386ZM202.997 422.88C204.185 422.892 205.091 423.156 205.715 423.672C206.339 424.188 206.651 424.932 206.651 425.904C206.651 426.912 206.315 427.686 205.643 428.226C204.971 428.766 204.011 429.03 202.763 429.018L199.019 429V419.532H200.297V422.844L202.997 422.88ZM208.235 419.532H209.513V429H208.235V419.532ZM202.691 428.046C203.567 428.058 204.227 427.884 204.671 427.524C205.127 427.152 205.355 426.612 205.355 425.904C205.355 425.208 205.133 424.692 204.689 424.356C204.245 424.02 203.579 423.846 202.691 423.834L200.297 423.798V428.01L202.691 428.046ZM51.8363 441.46C52.7843 441.46 53.6363 441.67 54.3923 442.09C55.1603 442.498 55.7603 443.068 56.1923 443.8C56.6363 444.532 56.8583 445.354 56.8583 446.266C56.8583 447.178 56.6363 448.006 56.1923 448.75C55.7603 449.482 55.1603 450.058 54.3923 450.478C53.6363 450.898 52.7843 451.108 51.8363 451.108C51.0443 451.108 50.3183 450.988 49.6583 450.748C48.9983 450.496 48.4403 450.136 47.9843 449.668L48.7403 448.912C49.5443 449.668 50.5583 450.046 51.7823 450.046C52.4663 450.046 53.0843 449.902 53.6363 449.614C54.2003 449.326 54.6563 448.924 55.0043 448.408C55.3643 447.892 55.5743 447.316 55.6343 446.68H50.5763V445.708H55.6163C55.4843 444.76 55.0643 443.992 54.3563 443.404C53.6483 442.804 52.7903 442.504 51.7823 442.504C50.5583 442.504 49.5443 442.882 48.7403 443.638L47.9843 442.9C48.4403 442.432 48.9983 442.078 49.6583 441.838C50.3183 441.586 51.0443 441.46 51.8363 441.46ZM67.2328 441.532V451H65.9548V442.666H61.4188L61.2928 445.006C61.1968 446.974 60.9688 448.486 60.6088 449.542C60.2488 450.598 59.6068 451.126 58.6828 451.126C58.4308 451.126 58.1248 451.078 57.7648 450.982L57.8548 449.884C58.0708 449.932 58.2208 449.956 58.3048 449.956C58.7968 449.956 59.1688 449.728 59.4208 449.272C59.6728 448.816 59.8408 448.252 59.9248 447.58C60.0088 446.908 60.0808 446.02 60.1408 444.916L60.3028 441.532H67.2328ZM79.1459 446.662H71.2259C71.2979 447.646 71.6759 448.444 72.3599 449.056C73.0439 449.656 73.9079 449.956 74.9519 449.956C75.5399 449.956 76.0799 449.854 76.5719 449.65C77.0639 449.434 77.4899 449.122 77.8499 448.714L78.5699 449.542C78.1499 450.046 77.6219 450.43 76.9859 450.694C76.3619 450.958 75.6719 451.09 74.9159 451.09C73.9439 451.09 73.0799 450.886 72.3239 450.478C71.5799 450.058 70.9979 449.482 70.5779 448.75C70.1579 448.018 69.9479 447.19 69.9479 446.266C69.9479 445.342 70.1459 444.514 70.5419 443.782C70.9499 443.05 71.5019 442.48 72.1979 442.072C72.9059 441.664 73.6979 441.46 74.5739 441.46C75.4499 441.46 76.2359 441.664 76.9319 442.072C77.6279 442.48 78.1739 443.05 78.5699 443.782C78.9659 444.502 79.1639 445.33 79.1639 446.266L79.1459 446.662ZM74.5739 442.558C73.6619 442.558 72.8939 442.852 72.2699 443.44C71.6579 444.016 71.3099 444.772 71.2259 445.708H77.9399C77.8559 444.772 77.5019 444.016 76.8779 443.44C76.2659 442.852 75.4979 442.558 74.5739 442.558ZM85.4308 446.788H83.2708V451H81.9928V441.532H83.2708V445.69H85.4488L88.7788 441.532H90.1648L86.4388 446.122L90.4348 451H88.9228L85.4308 446.788ZM98.9184 442.666H95.3364V451H94.0584V442.666H90.4764V441.532H98.9184V442.666ZM105.644 441.46C106.532 441.46 107.336 441.664 108.056 442.072C108.776 442.468 109.34 443.032 109.748 443.764C110.156 444.496 110.36 445.33 110.36 446.266C110.36 447.214 110.156 448.054 109.748 448.786C109.34 449.518 108.776 450.088 108.056 450.496C107.348 450.892 106.544 451.09 105.644 451.09C104.876 451.09 104.18 450.934 103.556 450.622C102.944 450.298 102.44 449.83 102.044 449.218V454.492H100.766V441.532H101.99V443.404C102.374 442.78 102.878 442.3 103.502 441.964C104.138 441.628 104.852 441.46 105.644 441.46ZM105.554 449.956C106.214 449.956 106.814 449.806 107.354 449.506C107.894 449.194 108.314 448.756 108.614 448.192C108.926 447.628 109.082 446.986 109.082 446.266C109.082 445.546 108.926 444.91 108.614 444.358C108.314 443.794 107.894 443.356 107.354 443.044C106.814 442.732 106.214 442.576 105.554 442.576C104.882 442.576 104.276 442.732 103.736 443.044C103.208 443.356 102.788 443.794 102.476 444.358C102.176 444.91 102.026 445.546 102.026 446.266C102.026 446.986 102.176 447.628 102.476 448.192C102.788 448.756 103.208 449.194 103.736 449.506C104.276 449.806 104.882 449.956 105.554 449.956ZM117.012 451.09C116.1 451.09 115.278 450.886 114.546 450.478C113.814 450.058 113.238 449.482 112.818 448.75C112.398 448.018 112.188 447.19 112.188 446.266C112.188 445.342 112.398 444.514 112.818 443.782C113.238 443.05 113.814 442.48 114.546 442.072C115.278 441.664 116.1 441.46 117.012 441.46C117.924 441.46 118.746 441.664 119.478 442.072C120.21 442.48 120.78 443.05 121.188 443.782C121.608 444.514 121.818 445.342 121.818 446.266C121.818 447.19 121.608 448.018 121.188 448.75C120.78 449.482 120.21 450.058 119.478 450.478C118.746 450.886 117.924 451.09 117.012 451.09ZM117.012 449.956C117.684 449.956 118.284 449.806 118.812 449.506C119.352 449.194 119.772 448.756 120.072 448.192C120.372 447.628 120.522 446.986 120.522 446.266C120.522 445.546 120.372 444.904 120.072 444.34C119.772 443.776 119.352 443.344 118.812 443.044C118.284 442.732 117.684 442.576 117.012 442.576C116.34 442.576 115.734 442.732 115.194 443.044C114.666 443.344 114.246 443.776 113.934 444.34C113.634 444.904 113.484 445.546 113.484 446.266C113.484 446.986 113.634 447.628 113.934 448.192C114.246 448.756 114.666 449.194 115.194 449.506C115.734 449.806 116.34 449.956 117.012 449.956ZM129.139 441.766C130.015 441.766 130.795 441.964 131.479 442.36C132.175 442.744 132.715 443.29 133.099 443.998C133.483 444.694 133.675 445.492 133.675 446.392C133.675 447.316 133.471 448.138 133.063 448.858C132.667 449.566 132.109 450.118 131.389 450.514C130.669 450.91 129.841 451.108 128.905 451.108C127.333 451.108 126.115 450.556 125.251 449.452C124.387 448.348 123.955 446.824 123.955 444.88C123.955 442.852 124.339 441.298 125.107 440.218C125.887 439.138 127.099 438.406 128.743 438.022L132.991 437.05L133.207 438.22L129.211 439.138C127.855 439.438 126.859 439.972 126.223 440.74C125.587 441.496 125.239 442.618 125.179 444.106C125.563 443.374 126.097 442.804 126.781 442.396C127.465 441.976 128.251 441.766 129.139 441.766ZM128.941 450.046C129.601 450.046 130.189 449.896 130.705 449.596C131.233 449.284 131.641 448.852 131.929 448.3C132.229 447.748 132.379 447.124 132.379 446.428C132.379 445.732 132.235 445.12 131.947 444.592C131.659 444.064 131.251 443.656 130.723 443.368C130.207 443.068 129.613 442.918 128.941 442.918C128.269 442.918 127.669 443.068 127.141 443.368C126.625 443.656 126.217 444.064 125.917 444.592C125.629 445.12 125.485 445.732 125.485 446.428C125.485 447.124 125.629 447.748 125.917 448.3C126.217 448.852 126.631 449.284 127.159 449.596C127.687 449.896 128.281 450.046 128.941 450.046ZM144.695 446.662H136.775C136.847 447.646 137.225 448.444 137.909 449.056C138.593 449.656 139.457 449.956 140.501 449.956C141.089 449.956 141.629 449.854 142.121 449.65C142.613 449.434 143.039 449.122 143.399 448.714L144.119 449.542C143.699 450.046 143.171 450.43 142.535 450.694C141.911 450.958 141.221 451.09 140.465 451.09C139.493 451.09 138.629 450.886 137.873 450.478C137.129 450.058 136.547 449.482 136.127 448.75C135.707 448.018 135.497 447.19 135.497 446.266C135.497 445.342 135.695 444.514 136.091 443.782C136.499 443.05 137.051 442.48 137.747 442.072C138.455 441.664 139.247 441.46 140.123 441.46C140.999 441.46 141.785 441.664 142.481 442.072C143.177 442.48 143.723 443.05 144.119 443.782C144.515 444.502 144.713 445.33 144.713 446.266L144.695 446.662ZM140.123 442.558C139.211 442.558 138.443 442.852 137.819 443.44C137.207 444.016 136.859 444.772 136.775 445.708H143.489C143.405 444.772 143.051 444.016 142.427 443.44C141.815 442.852 141.047 442.558 140.123 442.558ZM151.886 446.068C152.558 446.224 153.074 446.494 153.434 446.878C153.806 447.262 153.992 447.73 153.992 448.282C153.992 448.834 153.8 449.326 153.416 449.758C153.044 450.19 152.534 450.526 151.886 450.766C151.238 450.994 150.524 451.108 149.744 451.108C149.06 451.108 148.388 451.012 147.728 450.82C147.068 450.616 146.492 450.322 146 449.938L146.432 448.984C146.864 449.308 147.368 449.56 147.944 449.74C148.52 449.92 149.102 450.01 149.69 450.01C150.566 450.01 151.28 449.848 151.832 449.524C152.396 449.188 152.678 448.738 152.678 448.174C152.678 447.67 152.45 447.28 151.994 447.004C151.538 446.716 150.914 446.572 150.122 446.572H148.502V445.636H150.05C150.758 445.636 151.328 445.504 151.76 445.24C152.192 444.964 152.408 444.598 152.408 444.142C152.408 443.638 152.162 443.242 151.67 442.954C151.19 442.666 150.56 442.522 149.78 442.522C148.76 442.522 147.752 442.78 146.756 443.296L146.396 442.306C147.524 441.718 148.694 441.424 149.906 441.424C150.626 441.424 151.274 441.532 151.85 441.748C152.438 441.952 152.894 442.246 153.218 442.63C153.554 443.014 153.722 443.458 153.722 443.962C153.722 444.442 153.554 444.868 153.218 445.24C152.894 445.612 152.45 445.888 151.886 446.068ZM160.799 451.09C159.887 451.09 159.065 450.886 158.333 450.478C157.601 450.058 157.025 449.482 156.605 448.75C156.185 448.018 155.975 447.19 155.975 446.266C155.975 445.342 156.185 444.514 156.605 443.782C157.025 443.05 157.601 442.48 158.333 442.072C159.065 441.664 159.887 441.46 160.799 441.46C161.711 441.46 162.533 441.664 163.265 442.072C163.997 442.48 164.567 443.05 164.975 443.782C165.395 444.514 165.605 445.342 165.605 446.266C165.605 447.19 165.395 448.018 164.975 448.75C164.567 449.482 163.997 450.058 163.265 450.478C162.533 450.886 161.711 451.09 160.799 451.09ZM160.799 449.956C161.471 449.956 162.071 449.806 162.599 449.506C163.139 449.194 163.559 448.756 163.859 448.192C164.159 447.628 164.309 446.986 164.309 446.266C164.309 445.546 164.159 444.904 163.859 444.34C163.559 443.776 163.139 443.344 162.599 443.044C162.071 442.732 161.471 442.576 160.799 442.576C160.127 442.576 159.521 442.732 158.981 443.044C158.453 443.344 158.033 443.776 157.721 444.34C157.421 444.904 157.271 445.546 157.271 446.266C157.271 446.986 157.421 447.628 157.721 448.192C158.033 448.756 158.453 449.194 158.981 449.506C159.521 449.806 160.127 449.956 160.799 449.956ZM176.833 441.532V451H175.555V442.666H169.615V451H168.337V441.532H176.833ZM183.723 441.46C184.959 441.46 185.907 441.772 186.567 442.396C187.227 443.008 187.557 443.92 187.557 445.132V451H186.333V449.524C186.045 450.016 185.619 450.4 185.055 450.676C184.503 450.952 183.843 451.09 183.075 451.09C182.019 451.09 181.179 450.838 180.555 450.334C179.931 449.83 179.619 449.164 179.619 448.336C179.619 447.532 179.907 446.884 180.483 446.392C181.071 445.9 182.001 445.654 183.273 445.654H186.279V445.078C186.279 444.262 186.051 443.644 185.595 443.224C185.139 442.792 184.473 442.576 183.597 442.576C182.997 442.576 182.421 442.678 181.869 442.882C181.317 443.074 180.843 443.344 180.447 443.692L179.871 442.738C180.351 442.33 180.927 442.018 181.599 441.802C182.271 441.574 182.979 441.46 183.723 441.46ZM183.273 450.082C183.993 450.082 184.611 449.92 185.127 449.596C185.643 449.26 186.027 448.78 186.279 448.156V446.608H183.309C181.689 446.608 180.879 447.172 180.879 448.3C180.879 448.852 181.089 449.29 181.509 449.614C181.929 449.926 182.517 450.082 183.273 450.082ZM194.92 451.09C193.984 451.09 193.144 450.886 192.4 450.478C191.668 450.07 191.092 449.5 190.672 448.768C190.252 448.024 190.042 447.19 190.042 446.266C190.042 445.342 190.252 444.514 190.672 443.782C191.092 443.05 191.668 442.48 192.4 442.072C193.144 441.664 193.984 441.46 194.92 441.46C195.736 441.46 196.462 441.622 197.098 441.946C197.746 442.258 198.256 442.72 198.628 443.332L197.674 443.98C197.362 443.512 196.966 443.164 196.486 442.936C196.006 442.696 195.484 442.576 194.92 442.576C194.236 442.576 193.618 442.732 193.066 443.044C192.526 443.344 192.1 443.776 191.788 444.34C191.488 444.904 191.338 445.546 191.338 446.266C191.338 446.998 191.488 447.646 191.788 448.21C192.1 448.762 192.526 449.194 193.066 449.506C193.618 449.806 194.236 449.956 194.92 449.956C195.484 449.956 196.006 449.842 196.486 449.614C196.966 449.386 197.362 449.038 197.674 448.57L198.628 449.218C198.256 449.83 197.746 450.298 197.098 450.622C196.45 450.934 195.724 451.09 194.92 451.09ZM201.102 441.532H202.38V445.726H208.338V441.532H209.616V451H208.338V446.824H202.38V451H201.102V441.532ZM217.155 451.09C216.243 451.09 215.421 450.886 214.689 450.478C213.957 450.058 213.381 449.482 212.961 448.75C212.541 448.018 212.331 447.19 212.331 446.266C212.331 445.342 212.541 444.514 212.961 443.782C213.381 443.05 213.957 442.48 214.689 442.072C215.421 441.664 216.243 441.46 217.155 441.46C218.067 441.46 218.889 441.664 219.621 442.072C220.353 442.48 220.923 443.05 221.331 443.782C221.751 444.514 221.961 445.342 221.961 446.266C221.961 447.19 221.751 448.018 221.331 448.75C220.923 449.482 220.353 450.058 219.621 450.478C218.889 450.886 218.067 451.09 217.155 451.09ZM217.155 449.956C217.827 449.956 218.427 449.806 218.955 449.506C219.495 449.194 219.915 448.756 220.215 448.192C220.515 447.628 220.665 446.986 220.665 446.266C220.665 445.546 220.515 444.904 220.215 444.34C219.915 443.776 219.495 443.344 218.955 443.044C218.427 442.732 217.827 442.576 217.155 442.576C216.483 442.576 215.877 442.732 215.337 443.044C214.809 443.344 214.389 443.776 214.077 444.34C213.777 444.904 213.627 445.546 213.627 446.266C213.627 446.986 213.777 447.628 214.077 448.192C214.389 448.756 214.809 449.194 215.337 449.506C215.877 449.806 216.483 449.956 217.155 449.956ZM228.652 451.09C227.716 451.09 226.876 450.886 226.132 450.478C225.4 450.07 224.824 449.5 224.404 448.768C223.984 448.024 223.774 447.19 223.774 446.266C223.774 445.342 223.984 444.514 224.404 443.782C224.824 443.05 225.4 442.48 226.132 442.072C226.876 441.664 227.716 441.46 228.652 441.46C229.468 441.46 230.194 441.622 230.83 441.946C231.478 442.258 231.988 442.72 232.36 443.332L231.406 443.98C231.094 443.512 230.698 443.164 230.218 442.936C229.738 442.696 229.216 442.576 228.652 442.576C227.968 442.576 227.35 442.732 226.798 443.044C226.258 443.344 225.832 443.776 225.52 444.34C225.22 444.904 225.07 445.546 225.07 446.266C225.07 446.998 225.22 447.646 225.52 448.21C225.832 448.762 226.258 449.194 226.798 449.506C227.35 449.806 227.968 449.956 228.652 449.956C229.216 449.956 229.738 449.842 230.218 449.614C230.698 449.386 231.094 449.038 231.406 448.57L232.36 449.218C231.988 449.83 231.478 450.298 230.83 450.622C230.182 450.934 229.456 451.09 228.652 451.09ZM241.319 442.666H237.737V451H236.459V442.666H232.877V441.532H241.319V442.666ZM243.167 441.532H244.445V449.056L250.763 441.532H251.897V451H250.619V443.476L244.319 451H243.167V441.532ZM255.649 451.09C255.385 451.09 255.157 450.994 254.965 450.802C254.785 450.61 254.695 450.376 254.695 450.1C254.695 449.824 254.785 449.596 254.965 449.416C255.157 449.224 255.385 449.128 255.649 449.128C255.913 449.128 256.141 449.224 256.333 449.416C256.525 449.596 256.621 449.824 256.621 450.1C256.621 450.376 256.525 450.61 256.333 450.802C256.141 450.994 255.913 451.09 255.649 451.09Z" fill="white"/>
<g clip-path="url(#clip0_764:338)">
<path d="M154.001 200.563C134.913 200.563 119.405 216.097 119.405 235.158C119.405 254.219 134.939 269.753 154.001 269.753C173.061 269.753 188.595 254.219 188.595 235.158C188.595 216.097 173.088 200.563 154.001 200.563V200.563ZM171.35 226.865L150.472 246.558C150.086 246.936 149.565 247.145 149.024 247.138C148.458 247.143 147.915 246.914 147.523 246.505L136.597 235.29C135.797 234.459 135.815 233.138 136.639 232.329C137.461 231.521 138.782 231.526 139.599 232.341L149.077 242.082L168.454 223.811C169.297 223.011 170.629 223.047 171.429 223.89C172.229 224.733 172.193 226.065 171.35 226.865V226.865Z" fill="white"/>
<path d="M203.68 247.769L212 235.158L203.68 222.547C203.437 222.172 203.316 221.73 203.338 221.283L204.18 206.171L190.727 199.353C190.329 199.152 190.006 198.829 189.806 198.431L183.013 184.977L167.901 185.82C167.454 185.841 167.012 185.722 166.638 185.477L154 177.158L141.389 185.477C141.014 185.722 140.572 185.841 140.126 185.82L125.013 184.977L118.194 198.431C117.994 198.829 117.671 199.152 117.273 199.353L103.819 206.144L104.661 221.257C104.683 221.703 104.564 222.146 104.32 222.521L96 235.158L104.32 247.769C104.564 248.144 104.683 248.586 104.661 249.033L103.819 264.145L117.273 270.937C117.671 271.138 117.994 271.461 118.194 271.859L124.987 285.313L140.099 284.469H140.204C140.614 284.475 141.016 284.593 141.363 284.812L153.973 293.132L166.585 284.812C166.959 284.568 167.402 284.449 167.848 284.469L182.961 285.313L189.753 271.859C189.954 271.461 190.277 271.138 190.675 270.937L204.128 264.145L203.286 249.033C203.308 248.585 203.444 248.15 203.68 247.769V247.769ZM154 273.965C132.596 273.965 115.193 256.562 115.193 235.158C115.193 213.754 132.596 196.351 154 196.351C175.405 196.351 192.807 213.754 192.807 235.158C192.807 256.562 175.405 273.965 154 273.965V273.965Z" fill="white"/>
</g>
<path d="M129.923 90.4V110H125.387V94.04H121.467V90.4H129.923ZM141.728 110.336C140.104 110.336 138.658 109.935 137.388 109.132C136.119 108.329 135.12 107.172 134.392 105.66C133.683 104.129 133.328 102.309 133.328 100.2C133.328 98.0907 133.683 96.28 134.392 94.768C135.12 93.2373 136.119 92.0707 137.388 91.268C138.658 90.4653 140.104 90.064 141.728 90.064C143.352 90.064 144.799 90.4653 146.068 91.268C147.338 92.0707 148.327 93.2373 149.036 94.768C149.764 96.28 150.128 98.0907 150.128 100.2C150.128 102.309 149.764 104.129 149.036 105.66C148.327 107.172 147.338 108.329 146.068 109.132C144.799 109.935 143.352 110.336 141.728 110.336ZM141.728 106.5C142.923 106.5 143.856 105.987 144.528 104.96C145.219 103.933 145.564 102.347 145.564 100.2C145.564 98.0533 145.219 96.4667 144.528 95.44C143.856 94.4133 142.923 93.9 141.728 93.9C140.552 93.9 139.619 94.4133 138.928 95.44C138.256 96.4667 137.92 98.0533 137.92 100.2C137.92 102.347 138.256 103.933 138.928 104.96C139.619 105.987 140.552 106.5 141.728 106.5ZM160.732 110.336C159.108 110.336 157.662 109.935 156.392 109.132C155.123 108.329 154.124 107.172 153.396 105.66C152.687 104.129 152.332 102.309 152.332 100.2C152.332 98.0907 152.687 96.28 153.396 94.768C154.124 93.2373 155.123 92.0707 156.392 91.268C157.662 90.4653 159.108 90.064 160.732 90.064C162.356 90.064 163.803 90.4653 165.072 91.268C166.342 92.0707 167.331 93.2373 168.04 94.768C168.768 96.28 169.132 98.0907 169.132 100.2C169.132 102.309 168.768 104.129 168.04 105.66C167.331 107.172 166.342 108.329 165.072 109.132C163.803 109.935 162.356 110.336 160.732 110.336ZM160.732 106.5C161.927 106.5 162.86 105.987 163.532 104.96C164.223 103.933 164.568 102.347 164.568 100.2C164.568 98.0533 164.223 96.4667 163.532 95.44C162.86 94.4133 161.927 93.9 160.732 93.9C159.556 93.9 158.623 94.4133 157.932 95.44C157.26 96.4667 156.924 98.0533 156.924 100.2C156.924 102.347 157.26 103.933 157.932 104.96C158.623 105.987 159.556 106.5 160.732 106.5ZM183.802 100.984C182.364 100.984 181.188 100.499 180.274 99.528C179.378 98.5387 178.93 97.2227 178.93 95.58C178.93 93.9373 179.378 92.6307 180.274 91.66C181.188 90.6707 182.364 90.176 183.802 90.176C185.239 90.176 186.406 90.6707 187.302 91.66C188.198 92.6307 188.646 93.9373 188.646 95.58C188.646 97.2227 188.198 98.5387 187.302 99.528C186.406 100.499 185.239 100.984 183.802 100.984ZM195.478 90.4H198.81L185.426 110H182.094L195.478 90.4ZM183.802 98.688C184.436 98.688 184.931 98.4267 185.286 97.904C185.659 97.3813 185.846 96.6067 185.846 95.58C185.846 94.5533 185.659 93.7787 185.286 93.256C184.931 92.7333 184.436 92.472 183.802 92.472C183.186 92.472 182.691 92.7427 182.318 93.284C181.944 93.8067 181.758 94.572 181.758 95.58C181.758 96.588 181.944 97.3627 182.318 97.904C182.691 98.4267 183.186 98.688 183.802 98.688ZM197.102 110.224C196.168 110.224 195.328 110.009 194.582 109.58C193.854 109.132 193.284 108.497 192.874 107.676C192.463 106.855 192.258 105.903 192.258 104.82C192.258 103.737 192.463 102.785 192.874 101.964C193.284 101.143 193.854 100.517 194.582 100.088C195.328 99.64 196.168 99.416 197.102 99.416C198.539 99.416 199.706 99.9107 200.602 100.9C201.516 101.871 201.974 103.177 201.974 104.82C201.974 106.463 201.516 107.779 200.602 108.768C199.706 109.739 198.539 110.224 197.102 110.224ZM197.102 107.928C197.736 107.928 198.231 107.667 198.586 107.144C198.959 106.603 199.146 105.828 199.146 104.82C199.146 103.812 198.959 103.047 198.586 102.524C198.231 101.983 197.736 101.712 197.102 101.712C196.486 101.712 195.991 101.973 195.618 102.496C195.244 103.019 195.058 103.793 195.058 104.82C195.058 105.847 195.244 106.621 195.618 107.144C195.991 107.667 196.486 107.928 197.102 107.928ZM101.953 138.288H99.6848V144H95.3168V128.936H99.6848V134.788H102.037L106.125 128.936H110.773L105.509 136.16L111.137 144H105.985L101.953 138.288ZM118.86 128.712C121.194 128.712 122.986 129.272 124.236 130.392C125.487 131.493 126.112 133.164 126.112 135.404V144H122.024V142.124C121.203 143.524 119.672 144.224 117.432 144.224C116.275 144.224 115.267 144.028 114.408 143.636C113.568 143.244 112.924 142.703 112.476 142.012C112.028 141.321 111.804 140.537 111.804 139.66C111.804 138.26 112.327 137.159 113.372 136.356C114.436 135.553 116.07 135.152 118.272 135.152H121.744C121.744 134.2 121.455 133.472 120.876 132.968C120.298 132.445 119.43 132.184 118.272 132.184C117.47 132.184 116.676 132.315 115.892 132.576C115.127 132.819 114.474 133.155 113.932 133.584L112.364 130.532C113.186 129.953 114.166 129.505 115.304 129.188C116.462 128.871 117.647 128.712 118.86 128.712ZM118.524 141.284C119.271 141.284 119.934 141.116 120.512 140.78C121.091 140.425 121.502 139.912 121.744 139.24V137.7H118.748C116.956 137.7 116.06 138.288 116.06 139.464C116.06 140.024 116.275 140.472 116.704 140.808C117.152 141.125 117.759 141.284 118.524 141.284ZM143.459 128.936V144H139.091V138.4C137.821 139.035 136.421 139.352 134.891 139.352C132.856 139.352 131.316 138.895 130.271 137.98C129.244 137.047 128.731 135.609 128.731 133.668V128.936H133.099V133.388C133.099 134.303 133.332 134.965 133.799 135.376C134.284 135.787 134.975 135.992 135.871 135.992C137.009 135.992 138.083 135.749 139.091 135.264V128.936H143.459ZM162.297 136.524C162.297 136.58 162.269 136.972 162.213 137.7H150.817C151.022 138.633 151.507 139.371 152.273 139.912C153.038 140.453 153.99 140.724 155.129 140.724C155.913 140.724 156.603 140.612 157.201 140.388C157.817 140.145 158.386 139.772 158.909 139.268L161.233 141.788C159.814 143.412 157.742 144.224 155.017 144.224C153.318 144.224 151.815 143.897 150.509 143.244C149.202 142.572 148.194 141.648 147.485 140.472C146.775 139.296 146.421 137.961 146.421 136.468C146.421 134.993 146.766 133.668 147.457 132.492C148.166 131.297 149.127 130.373 150.341 129.72C151.573 129.048 152.945 128.712 154.457 128.712C155.931 128.712 157.266 129.029 158.461 129.664C159.655 130.299 160.589 131.213 161.261 132.408C161.951 133.584 162.297 134.956 162.297 136.524ZM154.485 132.016C153.495 132.016 152.665 132.296 151.993 132.856C151.321 133.416 150.91 134.181 150.761 135.152H158.181C158.031 134.2 157.621 133.444 156.949 132.884C156.277 132.305 155.455 132.016 154.485 132.016ZM172.813 144.224C171.208 144.224 169.761 143.897 168.473 143.244C167.204 142.572 166.205 141.648 165.477 140.472C164.768 139.296 164.413 137.961 164.413 136.468C164.413 134.975 164.768 133.64 165.477 132.464C166.205 131.288 167.204 130.373 168.473 129.72C169.761 129.048 171.208 128.712 172.813 128.712C174.4 128.712 175.781 129.048 176.957 129.72C178.152 130.373 179.02 131.316 179.561 132.548L176.173 134.368C175.389 132.987 174.26 132.296 172.785 132.296C171.646 132.296 170.704 132.669 169.957 133.416C169.21 134.163 168.837 135.18 168.837 136.468C168.837 137.756 169.21 138.773 169.957 139.52C170.704 140.267 171.646 140.64 172.785 140.64C174.278 140.64 175.408 139.949 176.173 138.568L179.561 140.416C179.02 141.611 178.152 142.544 176.957 143.216C175.781 143.888 174.4 144.224 172.813 144.224ZM194.817 132.52H189.721V144H185.381V132.52H180.285V128.936H194.817V132.52ZM208.653 136.132C210.426 136.729 211.313 137.924 211.313 139.716C211.313 141.079 210.8 142.133 209.773 142.88C208.746 143.627 207.216 144 205.181 144H197.145V128.936H204.845C206.73 128.936 208.205 129.281 209.269 129.972C210.333 130.644 210.865 131.596 210.865 132.828C210.865 133.575 210.669 134.237 210.277 134.816C209.904 135.376 209.362 135.815 208.653 136.132ZM201.149 135.124H204.453C205.984 135.124 206.749 134.583 206.749 133.5C206.749 132.436 205.984 131.904 204.453 131.904H201.149V135.124ZM204.817 141.032C206.422 141.032 207.225 140.481 207.225 139.38C207.225 138.801 207.038 138.381 206.665 138.12C206.292 137.84 205.704 137.7 204.901 137.7H201.149V141.032H204.817ZM221.619 144.224C220.032 144.224 218.604 143.897 217.335 143.244C216.084 142.572 215.104 141.648 214.395 140.472C213.686 139.296 213.331 137.961 213.331 136.468C213.331 134.975 213.686 133.64 214.395 132.464C215.104 131.288 216.084 130.373 217.335 129.72C218.604 129.048 220.032 128.712 221.619 128.712C223.206 128.712 224.624 129.048 225.875 129.72C227.126 130.373 228.106 131.288 228.815 132.464C229.524 133.64 229.879 134.975 229.879 136.468C229.879 137.961 229.524 139.296 228.815 140.472C228.106 141.648 227.126 142.572 225.875 143.244C224.624 143.897 223.206 144.224 221.619 144.224ZM221.619 140.64C222.739 140.64 223.654 140.267 224.363 139.52C225.091 138.755 225.455 137.737 225.455 136.468C225.455 135.199 225.091 134.191 224.363 133.444C223.654 132.679 222.739 132.296 221.619 132.296C220.499 132.296 219.575 132.679 218.847 133.444C218.119 134.191 217.755 135.199 217.755 136.468C217.755 137.737 218.119 138.755 218.847 139.52C219.575 140.267 220.499 140.64 221.619 140.64Z" fill="white"/>
<defs>
<clipPath id="clip0_764:338">
<rect width="116" height="116" fill="white" transform="translate(96 177)"/>
</clipPath>
</defs>
</svg>
